/* XPM */
static const char *patchcoin_testnet32[] = {
/* columns rows colors chars-per-pixel */
"32 32 206 2 ",
"   c #000001",
".  c #060308",
"X  c #07070A",
"o  c #001500",
"O  c #001B00",
"+  c #0C0611",
"@  c #012402",
"#  c #012901",
"$  c #062509",
"%  c #09260C",
"&  c #0C2512",
"*  c #112A13",
"=  c #10241B",
"-  c #172C1D",
";  c #182D1D",
":  c #17301B",
">  c #140024",
",  c #18012C",
"<  c #1A1C28",
"1  c #231928",
"2  c #21003E",
"3  c #162522",
"4  c #1A2826",
"5  c #1F2035",
"6  c #1C3222",
"7  c #242F2F",
"8  c #283B2D",
"9  c #2B2D3B",
"0  c #2C3C32",
"q  c #38283F",
"w  c #304035",
"e  c #230041",
"r  c #291B4B",
"t  c #2D0054",
"y  c #33025A",
"u  c #301050",
"i  c #34284C",
"p  c #352846",
"a  c #3C3A48",
"s  c #3A2555",
"d  c #3A1966",
"f  c #4C3455",
"g  c #423854",
"h  c #523B5D",
"j  c #442D4D",
"k  c #441E6D",
"l  c #43147A",
"z  c #481C73",
"x  c #492A6A",
"c  c #4D3367",
"v  c #533C6B",
"b  c #573874",
"n  c #4C2173",
"m  c #3E4846",
"M  c #42464A",
"N  c #4A4955",
"B  c #52535D",
"V  c #5D526C",
"C  c #685A78",
"Z  c #645B6E",
"A  c #6C617A",
"S  c #460083",
"D  c #4B1880",
"F  c #59168A",
"G  c #5B1699",
"H  c #611094",
"J  c #5D298A",
"K  c #673291",
"L  c #5904A7",
"P  c #5E13A3",
"I  c #751CAC",
"U  c #650ABC",
"Y  c #7719B1",
"T  c #7827AE",
"R  c #7C3CA6",
"E  c #7E28B5",
"W  c #6E498C",
"Q  c #755487",
"!  c #6F4092",
"~  c #7E5E92",
"^  c #735087",
"/  c #796587",
"(  c #7942A0",
")  c #6700C2",
"_  c #6D01C9",
"`  c #7708C6",
"'  c #7513C3",
"]  c #7C09DC",
"[  c #7A04DE",
"{  c #7D00E4",
"}  c #883FAF",
"|  c #8229B5",
" . c #8736B4",
".. c #805194",
"X. c #89719B",
"o. c #806596",
"O. c #8C4AAE",
"+. c #8C57AB",
"@. c #8F47B8",
"#. c #9358B5",
"$. c #9049B5",
"%. c #966CA9",
"&. c #9778AA",
"*. c #9D7BB0",
"=. c #8A1CD7",
"-. c #8E28D2",
";. c #9635D2",
":. c #A73DDF",
">. c #8A08E9",
",. c #981BEB",
"<. c #8602F4",
"1. c #8902F7",
"2. c #8700FA",
"3. c #8D00FE",
"4. c #9302FE",
"5. c #9903FF",
"6. c #930BFB",
"7. c #9B0CFF",
"8. c #930BF5",
"9. c #9C18F6",
"0. c #8A10E7",
"q. c #A20DFF",
"w. c #A304FF",
"e. c #A414FE",
"r. c #A916FF",
"t. c #AE1AFF",
"y. c #A41CFD",
"u. c #B61DFF",
"i. c #9D26EA",
"p. c #A738EA",
"a. c #A623FA",
"s. c #AA27FA",
"d. c #B925FF",
"f. c #B62DFF",
"g. c #B224FF",
"h. c #AB34F3",
"j. c #BD34FF",
"k. c #B73EFA",
"l. c #BB3EFD",
"z. c #B238F6",
"x. c #A22BEC",
"c. c #C237FF",
"v. c #C339FF",
"b. c #9B49CB",
"n. c #AA57DA",
"m. c #B05FDE",
"M. c #B04DDB",
"N. c #AC7BC4",
"B. c #B17EC4",
"V. c #B979DB",
"C. c #B958EB",
"Z. c #BC47FC",
"A. c #BE51FA",
"S. c #AF4EE6",
"D. c #BC64EB",
"F. c #C94BFF",
"G. c #C443FF",
"H. c #D141FF",
"J. c #C252FE",
"K. c #CD55FF",
"L. c #C45CFB",
"P. c #C75DFA",
"I. c #D15FFE",
"U. c #C478EB",
"Y. c #C769F7",
"T. c #D46AFE",
"R. c #DB6DFF",
"E. c #D463FF",
"W. c #CC70FC",
"Q. c #CC79F8",
"!. c #D473FF",
"~. c #D27CFD",
"^. c #D67DFB",
"/. c #C06BED",
"(. c #E164FF",
"). c #E07AFF",
"_. c #AA83BF",
"`. c #AC83C2",
"'. c #B681CA",
"]. c #BC84D6",
"[. c #C492DC",
"{. c #C08FD7",
"}. c #C980EF",
"|. c #CD94E3",
" X c #D498EA",
".X c #CD82F2",
"XX c #D988FB",
"oX c #DB99F7",
"OX c #E586FF",
"+X c #E68EFF",
"@X c #E885FF",
"#X c #E294FE",
"$X c #EA9AFF",
"%X c #E899FF",
"&X c #F493FF",
"*X c #DFA0F3",
"=X c #DFA1FB",
"-X c #E3A2F6",
";X c #E4A2FB",
":X c #ECA7FE",
">X c #EEA8FF",
",X c #F3AEFF",
"<X c #F5ABFF",
"1X c #FEB2FF",
"2X c #F5B0FF",
"3X c None",
/* pixels */
"3X3X3X3X3X3X3X3X3X3X3X3X3X3X        3X3X3X3X3X3X3X3X3X3X3X3X3X3X",
"3X3X3X3X3X3X3X3X3X3X3X3X. f %.B.B.%.f . 3X3X3X3X3X3X3X3X3X3X3X3X",
"3X3X3X3X3X3X3X3X3X3X  p ].,X,X1X1X,X,X'.q   3X3X3X3X3X3X3X3X3X3X",
"3X3X3X3X3X3X3X3X  1 %.,X>X>X-X*.*.;X>X>X,X%.<   3X3X3X3X3X3X3X3X",
"3X3X3X3X3X3X3X+ Q ;X,X;X:X_.8 o o 0 `.>X;X,X-X^ + 3X3X3X3X3X3X3X",
"3X3X3X3X3X  h |.,X;X;X>XZ o $ A A O O N |.;X;X2X|.h   3X3X3X3X3X",
"3X3X3X3X1 '.,X:X>X*X X1X/ m [.<X<X{.M o 0 =X:X>X:X,XB.1 3X3X3X3X",
"3X3X3X1 *X,X:X;XX.: $ A -X1X:XoX;X:X2XB O |.[.&.;X>X,X X1 3X3X3X",
"3X3X. '.>X;X_.8 o ; 8 o * X.;X>XoXoX>XZ O  XC o 0 `.%X<XB.  3X3X",
"3X3Xf $X#XC O $ Z  X#Xo.* o 0 N.%XoX%XV O ].XXV O O / #X$Xj 3X3X",
"3X  ..%XU.% 6 V.+XXXXX+X.XC @ @ N V.&X~ ; }.XX+XV.; * .X%X^   3X",
"3X  #.OXU.@ N @XQ.~.~.^.~.Q @ @ O $ ^ Q.XX~.~.Q.OXM @ U.OX+.  3X",
"3X  #.).D.@ g !.W.W.!.+.; O 6 #.#.6 O ; +.!.W.W.!.a @ /.).O.  3X",
"3X  $.R.D.@ g R.T.R.n.@ % W Y.T.T.Y.W % @ m.T.Y.R.a @ D.R.O.  3X",
"3X  @.E.L.$.C.C.v b.n.@ b (.L.L.L.L.R.v @ n.I.I.L.7 % C.E.}   3X",
"3X   .K.J.K.! % O K S.@ b K.A.J.J.A.K.v @ M.K.( - @ c K.K. .  3X",
"3X   .F.G.g @ - R F.b.@ b F.Z.Z.Z.Z.F.c @ R 9 @ & K F.Z.F. .  3X",
"3X  | G.p.@ 9 k.G.l.;.@ b H.k.k.k.k.H.c @ @ @ c z.:. .l.G.E   3X",
"3X  | v.p.@ s c.h.j.;.@ % K z.j.j.z.J $ @ p ;.j.c.i $ h.v.T   3X",
"3X  E j.i.@ i f.s.f.-.@ @ @ 3 E E 3 @ 3 T f.f.s.f.i @ x.j.I   3X",
"3X  Y d.i.@ s d.a.g.-.@ x J @ @ @ $ J s.g.a.a.a.d.i @ i.d.I   3X",
"3X  H u.,.% 3 =.t.t.=.@ n u.=.s s ,.,.,.t.y.y.t.=.= & 9.u.F   3X",
"3X3Xy r.e.D @ @ k 9.=.@ z e.e.e.e.e.3 $ G e.,.k @ @ F e.r.t 3X3X",
"3X3X. ` q.7.' 5 # D 0.# z q.8.6.6.7.P & # 4 = # 5 ' 7.q.`   3X3X",
"3X3X3X, >.5.5.6.P >.] # d w.4.6.6.4.w.8.l $ = P 4.5.7.>., 3X3X3X",
"3X3X3X3X> _ 5.4.4.4.1.4 # r ] 5.5.] r G 5.<.1.4.4.5._ > 3X3X3X3X",
"3X3X3X3X3X  y { 4.2.3.[ r # @ D l @ # l 4.2.3.4.{ y   3X3X3X3X3X",
"3X3X3X3X3X3X3X+ S 1.4.3.3.U < # # < U 3.2.4.<.S + 3X3X3X3X3X3X3X",
"3X3X3X3X3X3X3X3X  > L 3.3.3.<.L L <.3.3.3.L >   3X3X3X3X3X3X3X3X",
"3X3X3X3X3X3X3X3X3X3X  e _ 4.4.4.4.4.3._ 2   3X3X3X3X3X3X3X3X3X3X",
"3X3X3X3X3X3X3X3X3X3X3X3X. t L ) ) L t . 3X3X3X3X3X3X3X3X3X3X3X3X",
"3X3X3X3X3X3X3X3X3X3X3X3X3X3X        3X3X3X3X3X3X3X3X3X3X3X3X3X3X"
};
