/* XPM */
static const char *patchcoin_testnet32[] = {
/* columns rows colors chars-per-pixel */
"32 32 195 2 ",
"   c #001600",
".  c #001C00",
"X  c #012402",
"o  c #002900",
"O  c #062609",
"+  c #0A250E",
"@  c #072909",
"#  c #0B290C",
"$  c #0A2511",
"%  c #12251C",
"&  c #152C1A",
"*  c #162E19",
"=  c #19321C",
"-  c #191F2D",
";  c #1C1E35",
":  c #231E3B",
">  c #182525",
",  c #1A2B24",
"<  c #1D262B",
"1  c #172326",
"2  c #1D3124",
"3  c #21292D",
"4  c #203426",
"5  c #23332B",
"6  c #2A3C2F",
"7  c #292A39",
"8  c #29273C",
"9  c #2A3435",
"0  c #263130",
"q  c #34423B",
"w  c #314137",
"e  c #2C1A4F",
"r  c #2D1854",
"t  c #361E5A",
"y  c #2B2444",
"u  c #343642",
"i  c #3A1966",
"p  c #3D2160",
"a  c #423756",
"s  c #4A1B7B",
"d  c #461978",
"f  c #472B66",
"g  c #45236A",
"h  c #4A2A6B",
"j  c #483361",
"k  c #4D2375",
"l  c #4F2A73",
"z  c #52287A",
"x  c #563474",
"c  c #5E3D7A",
"v  c #623C7D",
"b  c #3E4647",
"n  c #444C4C",
"m  c #40454B",
"M  c #524B5F",
"N  c #52535E",
"B  c #474953",
"V  c #554768",
"C  c #575662",
"Z  c #5E4875",
"A  c #615C6E",
"S  c #63417F",
"D  c #69597B",
"F  c #6D627C",
"G  c #53198B",
"H  c #66378B",
"J  c #6F3B94",
"K  c #703F92",
"L  c #6819AB",
"P  c #630BB7",
"I  c #7217B7",
"U  c #6D26A4",
"Y  c #6D5780",
"T  c #746383",
"R  c #7A6689",
"E  c #6909C3",
"W  c #7812CA",
"Q  c #7906DB",
"!  c #833BAE",
"~  c #8221BB",
"^  c #8B3DB9",
"/  c #8B729D",
"(  c #8644AF",
")  c #855CA4",
"_  c #8C48B6",
"`  c #924EB2",
"'  c #9850B9",
"]  c #936BAE",
"[  c #9578A8",
"{  c #976DB1",
"}  c #9D79B2",
"|  c #8A61A5",
" . c #A57BBD",
".. c #891AD9",
"X. c #8B39C0",
"o. c #9334CF",
"O. c #9131CF",
"+. c #A33DDD",
"@. c #8A08ED",
"#. c #991FE5",
"$. c #8300F6",
"%. c #8600FA",
"&. c #8B01FD",
"*. c #8F06F7",
"=. c #9303FE",
"-. c #9A04FF",
";. c #950BFD",
":. c #980BFD",
">. c #9612F2",
",. c #9D12FE",
"<. c #9F18FC",
"1. c #9712F8",
"2. c #A10AFF",
"3. c #A313FE",
"4. c #AB17FF",
"5. c #A51EFD",
"6. c #AA1DFF",
"7. c #A51EF7",
"8. c #B31EFF",
"9. c #B81AFF",
"0. c #A52EED",
"q. c #A327EF",
"w. c #AB27FE",
"e. c #AE2FFD",
"r. c #A729F5",
"t. c #B327FE",
"y. c #B22FFE",
"u. c #B437FE",
"i. c #BC30FF",
"p. c #B63CFB",
"a. c #B638F9",
"s. c #AA37EF",
"d. c #C239FF",
"f. c #A858D6",
"g. c #A94CDC",
"h. c #B065DA",
"j. c #B579D6",
"k. c #BA40FD",
"l. c #BD48FD",
"z. c #BF51FB",
"x. c #BF5AF8",
"c. c #B04EE3",
"v. c #BF6AED",
"b. c #CB42FF",
"n. c #C94AFF",
"m. c #C646FF",
"M. c #D04CFF",
"N. c #C252FE",
"B. c #CD54FF",
"V. c #C45BFD",
"C. c #CA5DFD",
"Z. c #D25FFF",
"A. c #DE57FF",
"S. c #C16AED",
"D. c #C67AE9",
"F. c #C564F3",
"G. c #CB66FE",
"H. c #CD6FFD",
"J. c #C36BF2",
"K. c #DB62FF",
"L. c #D96BFF",
"P. c #D468FD",
"I. c #CF78FE",
"U. c #CA76F4",
"Y. c #D271FF",
"T. c #D179FE",
"R. c #DB7CFE",
"E. c #A983BE",
"W. c #A982B2",
"Q. c #B186C6",
"!. c #B385CA",
"~. c #BE80DD",
"^. c #C793DD",
"/. c #D598EB",
"(. c #D482FD",
"). c #DB85FE",
"_. c #D688F9",
"`. c #DD9FF6",
"'. c #DD9AFC",
"]. c #D895F5",
"[. c #E78BFF",
"{. c #E882FF",
"}. c #F28FFF",
"|. c #E593FE",
" X c #EA96FF",
".X c #E39BFF",
"XX c #EB9FFF",
"oX c #E3A2FD",
"OX c #EAA6FD",
"+X c #EEA8FF",
"@X c #F1AAFF",
"#X c #F5ACFF",
"$X c #F8AFFF",
"%X c None",
"&X c black",
/* pixels */
"%X%X%X%X%X%X%X%X%X%X%X%X%XoXoXoXoXoXoX%X%X%X%X%X%X%X%X%X%X%X%X%X",
"%X%X%X%X%X%X%X%X%X%X%X%XoXoXoX@X+XoXoXoX%X%X%X%X%X%X%X%X%X%X%X%X",
"%X%X%X%X%X%X%X%X%X%XoXoXoX@XOXE.E.OX@XoXoXoX%X%X%X%X%X%X%X%X%X%X",
"%X%X%X%X%X%X%X%XoXoXoXoX@XQ.w     q !.@XOXoXoXoX%X%X%X%X%X%X%X%X",
"%X%X%X%X%X%XoXoXoXoXoXoXC     n n   . N /.OXoXoXoXoX%X%X%X%X%X%X",
"%X%X%X%X%XoXoXoX@X@X#XoX= = } +X+X} 4   * ^.OXoXoXoXoX%X%X%X%X%X",
"%X%X%XoXoXoX@XOX[ n F /.OX`.@XoXoX@XoXA   R $X/.OX@XoXoXoX%X%X%X",
"%X%XoXoXoX@XQ.w       * / OX+XoXoX`.#XW.  T `.@ w !.@XoXoXoX%X%X",
"%X%X'..X/.N .   b !.D O   6  .XX.X].XX}   T .Xq   . C ]..X'.%X%X",
"%X_._.|.M   5 { |.|. Xj.m . X B ~.|. X{   Y  X|.] 4   V |._.%X%X",
"%X(.(.(.4 @ D.[.(.(.(.).}.| X . O D (._.Z j.).(.[.D.X 5 ).(.(.%X",
"%XT.T.T.2 # U.T.T.I.R.T.) 4 . = &   & ) {.R.I.T.T.U.@ 5 T.T.T.%X",
"%XH.H.H., # J.H.H.Y.h.9 . X V S.S.V X . 9 h.Y.H.Y.v.O 5 Y.H.H.%X",
"%XG.G.G.0 & G.L.P.L.Z . u f.L.G.G.L.f.u . S L.F.G.F.@ 5 G.G.G.%X",
"%XV.V.C.f.c.C.S a C.c . ' K.V.V.V.x.K.` . S Z.C.Z._ X 9 C.V.V.%X",
"%XN.N.N.B._ , . $ z.c X _ B.z.N.N.z.B.( X v A.g.a X X K B.N.N.%X",
"%Xl.l.n.H X X j c.M.x X ^ n.l.l.l.l.n.! X x J O X , ^ n.l.l.l.%X",
"%Xk.k.k.3 X X.b.k.m.x X ^ b.p.k.k.p.b.! X O X + H k.+.+.k.k.k.%X",
"%Xu.u.u.> + a.u.a.d.l X y o.d.u.u.d.o.7 X X f s.d.a.$ 7 u.u.u.%X",
"%Xe.y.y.> + 0.y.e.i.l X X X h 0.0.f X X 8 O.i.y.e.0.O < y.e.e.%X",
"%Xw.w.w.> + r.w.r.t.k X g > X % % X % U t.t.w.w.w.q.O < w.w.w.%X",
"%X5.5.5.> O #.8.7.8.k X ~ 6.k O O z 7.9.6.7.7.5.8.#.X < 6.5.5.%X",
"%X3.<.4.p o > L 3.4.s X I 4.4.....9.G y ..4.4.3.L 1 o g 4.<.%X%X",
"%X%X,.,.>.t X o y 3.s o I 3.1.3.,.3.t o O s W 8 o X i >.,.,.%X%X",
"%X%X:.:.:.2.W : + :.s o I 2.;.:.:.;.:.G $ o o o : W 2.:.:.:.%X%X",
"%X%X%X=.=.*.-.=.@.-.G o d =.-.=.=.-.*.-.@.d e L =.-.*.=.=.%X%X%X",
"%X%X%X%X%X&.&.&.&.=.Q $ o 1 P =.=.P % - =.=.=.=.&.&.&.%X%X%X%X%X",
"%X%X%X%X%X%X&.&.&.&.&.Q r o o r e o o i &.%.%.%.&.&.%X%X%X%X%X%X",
"%X%X%X%X%X%X%X%X&.&.%.&.=.E ; o o ; E =.&.&.&.&.%X%X%X%X%X%X%X%X",
"%X%X%X%X%X%X%X%X%X%X%.%.%.&.%.P P %.&.%.%.%.%X%X%X%X%X%X%X%X%X%X",
"%X%X%X%X%X%X%X%X%X%X%X%X%.$.%.&.&.%.$.%.%X%X%X%X%X%X%X%X%X%X%X%X",
"%X%X%X%X%X%X%X%X%X%X%X%X%X%.%.$.$.%.%.%X%X%X%X%X%X%X%X%X%X%X%X%X"
};
