/* XPM */
static const char *patchcoin_testnet64[] = {
/* columns rows colors chars-per-pixel */
"64 64 216 2 ",
"   c #001E00",
".  c #012502",
"X  c #032803",
"o  c #062609",
"O  c #09250E",
"+  c #0B2A0D",
"@  c #0D2513",
"#  c #0E2A11",
"$  c #0F231A",
"%  c #112B14",
"&  c #12241C",
"*  c #14291B",
"=  c #182E1D",
"-  c #16301A",
";  c #19311B",
":  c #201C3C",
">  c #192626",
",  c #1E3323",
"<  c #1C2130",
"1  c #25392A",
"2  c #252539",
"3  c #2F3A38",
"4  c #2C3636",
"5  c #34423A",
"6  c #271C47",
"7  c #331A5A",
"8  c #321D54",
"9  c #2E1955",
"0  c #2E2644",
"q  c #322948",
"w  c #383B45",
"e  c #3B364C",
"r  c #3B2955",
"t  c #392556",
"y  c #361764",
"u  c #433B54",
"i  c #46325E",
"p  c #4A3A5E",
"a  c #453757",
"s  c #431C6E",
"d  c #461A77",
"f  c #46246A",
"g  c #4B3664",
"h  c #53366E",
"j  c #4A2075",
"k  c #522679",
"l  c #593877",
"z  c #3E4646",
"x  c #444A4D",
"c  c #494757",
"v  c #53525E",
"b  c #524F5F",
"n  c #554766",
"m  c #5A5765",
"M  c #5D4475",
"N  c #655875",
"B  c #64447F",
"V  c #6B6178",
"C  c #5A1898",
"Z  c #501390",
"A  c #5C2C86",
"S  c #663888",
"D  c #6E339A",
"F  c #5B0DA9",
"G  c #661BA4",
"H  c #660DB7",
"J  c #6C10BA",
"K  c #7618BF",
"L  c #6C20A8",
"P  c #762DAB",
"I  c #6D498A",
"U  c #73558B",
"Y  c #71538A",
"T  c #776785",
"R  c #7A40A1",
"E  c #7B18C5",
"W  c #7809D7",
"Q  c #6E07CB",
"!  c #7C03E5",
"~  c #883EB7",
"^  c #812BBD",
"/  c #8A719B",
"(  c #8A6D9F",
")  c #8E54B3",
"_  c #8C68A5",
"`  c #9678A9",
"'  c #9874AE",
"]  c #A37CB8",
"[  c #810CDD",
"{  c #8716DA",
"}  c #831ACD",
"|  c #9528DC",
" . c #9D37DB",
".. c #8B2EC9",
"X. c #A13EDC",
"o. c #8306E9",
"O. c #8C16E0",
"+. c #9616ED",
"@. c #8400F5",
"#. c #8B04F4",
"$. c #8600FA",
"%. c #8B01FD",
"&. c #9205FE",
"*. c #9A03FF",
"=. c #950BFE",
"-. c #9B0BFE",
";. c #9207F6",
":. c #9C13FE",
">. c #9C19F5",
",. c #910EEF",
"<. c #A30DFF",
"1. c #A303FF",
"2. c #A315FE",
"3. c #AA15FF",
"4. c #A31CFD",
"5. c #AD1BFF",
"6. c #B21CFF",
"7. c #9E2AE8",
"8. c #A228EF",
"9. c #A737E9",
"0. c #A721FE",
"q. c #AA24FE",
"w. c #AD2BFE",
"e. c #A727F7",
"r. c #B322FF",
"t. c #B42CFF",
"y. c #B92EFF",
"u. c #AF31FB",
"i. c #AE33F5",
"p. c #B233FE",
"a. c #BC33FF",
"s. c #B53AFD",
"d. c #B93DFE",
"f. c #B33CF5",
"g. c #C13CFF",
"h. c #C036FF",
"j. c #9B4BC9",
"k. c #9F56CB",
"l. c #A548DC",
"z. c #AA55D9",
"x. c #A874C5",
"c. c #B07EC9",
"v. c #B376D5",
"b. c #A66DC6",
"n. c #B252E6",
"m. c #BA5CEA",
"M. c #BB44FE",
"N. c #BF4BFE",
"B. c #B944F9",
"V. c #BD53F6",
"C. c #B248E9",
"Z. c #BA63E9",
"A. c #BF73E6",
"S. c #C543FF",
"D. c #CB42FF",
"F. c #C14EFE",
"G. c #CB4BFF",
"H. c #C354FE",
"J. c #CC53FF",
"K. c #C55BFE",
"L. c #CB5DFE",
"P. c #C05CF7",
"I. c #D15BFF",
"U. c #D157FF",
"Y. c #C476EB",
"T. c #C663FB",
"R. c #C964FE",
"E. c #CB6AFE",
"W. c #C96DF7",
"Q. c #D365FF",
"!. c #D36CFF",
"~. c #DB69FF",
"^. c #CE72FE",
"/. c #CD79F9",
"(. c #D175FF",
"). c #D973FF",
"_. c #D27CFE",
"`. c #DB7BFF",
"'. c #C16DEF",
"]. c #A681BB",
"[. c #B386C9",
"{. c #BD8CD4",
"}. c #C18BDA",
"|. c #C390DB",
" X c #C888E7",
".X c #CD96E5",
"XX c #D499EC",
"oX c #D582FE",
"OX c #DC83FE",
"+X c #D68AFC",
"@X c #DA8CFE",
"#X c #D387F3",
"$X c #DC93FE",
"%X c #DE9CFC",
"&X c #D99BF2",
"*X c #E389FF",
"=X c #E493FF",
"-X c #E893FF",
";X c #E19BFE",
":X c #EB9BFF",
">X c #F18CFF",
",X c #DFA0FA",
"<X c #DFA0F4",
"1X c #E4A3FF",
"2X c #E5A3FD",
"3X c #E6A4FD",
"4X c #E2A2FE",
"5X c #E9A6FE",
"6X c #ECA3FF",
"7X c #EEA8FF",
"8X c #E3A2F7",
"9X c #F2AAFF",
"0X c #F4ACFF",
"qX c #F8AEFF",
"wX c None",
"eX c black",
/* pixels */
"wXwXwXwXwXwXwXwXwXwXwXwXwXwXwXwXwXwXwXwXwXwXwXwXwXwXwXwX1X1X1X4X4X1X4X4XwXwXwXwXwXwXwXwXwXwXwXwXwXwXwXwXwXwXwXwXwXwXwXwXwXwXwXwX",
"wXwXwXwXwXwXwXwXwXwXwXwXwXwXwXwXwXwXwXwXwXwXwXwXwXwX4X1X1X1X1X1X1X4X1X1X4X4XwXwXwXwXwXwXwXwXwXwXwXwXwXwXwXwXwXwXwXwXwXwXwXwXwXwX",
"wXwXwXwXwXwXwXwXwXwXwXwXwXwXwXwXwXwXwXwXwXwXwXwX4X1X1X1X1X1X1X4X4X1X1X1X1X1X1X4XwXwXwXwXwXwXwXwXwXwXwXwXwXwXwXwXwXwXwXwXwXwXwXwX",
"wXwXwXwXwXwXwXwXwXwXwXwXwXwXwXwXwXwXwXwXwXwX4X4X1X1X1X4X1X4X4X4X4X4X4X1X4X1X1X1X1X1XwXwXwXwXwXwXwXwXwXwXwXwXwXwXwXwXwXwXwXwXwXwX",
"wXwXwXwXwXwXwXwXwXwXwXwXwXwXwXwXwXwXwXwX4X4X1X1X1X4X1X4X4X1X9X9X9X9X1X4X1X1X4X1X1X1X4XwXwXwXwXwXwXwXwXwXwXwXwXwXwXwXwXwXwXwXwXwX",
"wXwXwXwXwXwXwXwXwXwXwXwXwXwXwXwXwXwXwX4X1X1X1X4X4X1X4X4X9X<X/ m m ` 8X9X4X4X1X4X4X1X1X1X4XwXwXwXwXwXwXwXwXwXwXwXwXwXwXwXwXwXwXwX",
"wXwXwXwXwXwXwXwXwXwXwXwXwXwXwXwXwX4X4X1X1X1X4X1X4X4X7X7X' ,         1 ] 9X7X,X4X1X4X1X1X1X1X4XwXwXwXwXwXwXwXwXwXwXwXwXwXwXwXwXwX",
"wXwXwXwXwXwXwXwXwXwXwXwXwXwXwX4X1X1X1X1X1X4X1X4X3X0X{.z   . X X X X .   x |.0X3X4X4X1X4X1X1X1X4X4XwXwXwXwXwXwXwXwXwXwXwXwXwXwXwX",
"wXwXwXwXwXwXwXwXwXwXwXwXwX4X4X1X1X1X1X1X1X1X4X5X&Xm .   X X   . .   X X   X N &X9X4X4X1X4X1X1X1X1X1XwXwXwXwXwXwXwXwXwXwXwXwXwXwX",
"wXwXwXwXwXwXwXwXwXwXwXwX4X1X1X1X1X1X1X1X1X4X4X3Xz   X X .   5 [.[.5   . X .   - / 5X3X4X1X1X1X1X1X1X1X1XwXwXwXwXwXwXwXwXwXwXwXwX",
"wXwXwXwXwXwXwXwXwXwX1X1X1X1X4X4X1X4X4X4X4X4X3X&X% . .   , ` 7X7X7X5X/ ;   . X .   c 3X1X4X4X1X1X1X1X1X1X1X4XwXwXwXwXwXwXwXwXwXwX",
"wXwXwXwXwXwXwXwX1X1X1X1X1X4X1X4X4X5X9X9X7X4X,X7XV . + T <X9X4X4X4X4X9X&XV o   . X   T 9X4X1X4X4X4X1X4X1X1X1X1X4XwXwXwXwXwXwXwXwX",
"wXwXwXwXwXwXwX1X4X1X1X4X1X4X4X1X0XXX` / ].3X9X4X5X{..X0X3X4X4X1X1X4X4X3X0X|.x . . . 1 4X1X4X4X5X1X4X4X1X4X1X1X1X4XwXwXwXwXwXwXwX",
"wXwXwXwXwXwX4X4X4X4X4X1X4X4X9X8XT +     . 1 ].9X5X5X5X4X4X1X4X4X4X4X1X4X,X5XqXx   . + XX3X3X8X|.8X9X4X4X1X4X4X4X4X4XwXwXwXwXwXwX",
"wXwXwXwXwX1X1X1X1X1X4X4X7X7X' 1   . X X X .   x |.9X3X4X4X1X1X1X1X1X1X1X1X,X9Xm   . + .X5X%Xz . 1 ].9X7X4X4X1X1X1X1X1XwXwXwXwXwX",
"wXwXwXwXwX4X4X4X4X%X1X9X{.z   . X .     . X X   X N &X9X4X%X4X4X4X4X4X4X4X%X9Xv   . + .X0X]   X . . x }.9X1X;X4X4X4X4XwXwXwXwXwX",
"wXwXwXwX;X;X;X;X%X6XXXm .   X X . . m ' 3   . X .   - ( :X6X%X%X;X;X;X;X;X%X6Xv   . + .X6X{.+   X X   X N &X6X%X;X;X;X;XwXwXwXwX",
"wXwXwX$X$X$X$X$X:X] %   . X .   5 c.:X:X;X( -   . X .   3 c.:X=X$X$X$X$X$X$X:Xb   . +  X;X;Xc.3   . X .   - [.:X$X$X$X$XwXwXwXwX",
"wXwXwX$X$X$X@X=X}.# . X .   ; _ =X=X@X@X@X:X#XN X   X X . . c  X:X$X@X$X$X@X-Xn   . +  X=X@X=X=X_ =   . X . =  X$X@X$X$X$XwXwXwX",
"wXwXwX@X@X@X+X-XN   X . + Y #X-X+X+X@X@X@X+X@X-Xv.x . . . .   + Y #X-X+X+X+X-Xn   . #  X@X@X+X+X-X#XN X . X   U -X+X@X@X@XwXwXwX",
"wXwXwXoXoXoXoX*Xz . . + v.-XoXoXoXoXoXoXoXoXoXoX@X*X' 3 . . . .   , _ @X*XoX@Xb.+ . N @XoXoXoXoXoX+X-Xb.. .   c *XoXoXoXoXwXwXwX",
"wXwXoXoXoXoX_.OXw . . ; oX_._.oXoXoXoXoXoXoXoXoX/.oX>Xb.+ . . . X .   3 b.*XoXOXY.v.OXoXoXoXoX_.oX_.oX/.% .   c *X_.oXoXoXwXwXwX",
"wXwX_._._._._.`.w . . = /._._._._._._._._._./._.*XA.c . . . . . . . X . . n Y.OX_._._._._._._._._._._.Y.# . . c OX/._._._._.wXwX",
"wXwX(.(.(.(.^.`.w . . = /.(.^.(.(.(.(.(.(.^.`./.Y +   . . . . u e . . X .   + Y /.`.^.(.(.(.(.(.(.^._.'.# . . c `./.(.(.(.(.wXwX",
"wXwX^.^.^.^.^.).w . . = W.(.^.^.^.^.^.^.^.).) ,   . X . . , ) ).).) , . . X .   1 ) ).^.^.^.^.^.^.^.(.'.# . . u ).^.^.^.^.^.wXwX",
"wXwXE.E.E.E.E.).w . . = W.E.E.E.E.E.E.E.!.n . . X . . + I W.).E.E.).W.I + . . X .   M !.E.E.E.E.E.E.!.Z.# . . u ).E.E.E.E.E.wXwX",
"wXwXE.E.E.E.R.!.w . . = T.R.R.R.T.R.R.!.Z.o . . . . g Z.~.E.T.E.E.T.E.~.Z.p . . . . @ Z.E.R.E.E.E.R.E.Z.# . . u !.T.E.E.E.E.wXwX",
"wXwXR.R.R.R.T.Q.B     u Q.T.T.Q.~.R.T.R.z.X . . , k.Q.R.T.R.R.R.R.R.R.T.R.Q.k., . . + m.R.T.R.R.R.R.R.m.% . . u Q.T.R.R.R.R.wXwX",
"wXwXK.K.K.K.K.K.L.R I m.K.L.Q.) M z.R.L.z.. . . M ~.P.K.K.K.K.K.K.K.K.K.K.P.~.p . . + m.L.K.K.K.K.P.Q.m.+ . . u Q.K.K.K.K.K.wXwX",
"wXwXK.K.K.K.K.K.K.I.I.L.I.z.e . . % n.L.z.. . . h I.P.K.K.K.K.K.K.K.K.K.K.P.L.p . . + n.L.K.K.P.L.I.j.4 . X . l I.P.K.K.K.K.wXwX",
"wXwXH.H.H.H.H.H.H.V.J.V.l X . . o . j.U.l.. . . h U.H.H.H.H.H.H.H.H.H.H.H.H.J.i . . + n.H.V.H.U.n.g . . . . . j.J.H.H.H.H.H.wXwX",
"wXwXF.F.F.F.F.F.F.J.R * . . X . . e N.H.l.. . . h J.N.F.F.F.F.F.F.F.F.F.F.N.J.i . . + C.H.J.F.S # . . X . . S J.N.F.F.F.F.F.wXwX",
"wXwXN.N.N.N.N.N.G.h . . X . . * D F.F.G.l.. . . h G.N.N.N.N.N.N.N.N.N.N.N.N.G.i . . O C.G.) > . . X . . > ) G.N.N.F.F.F.N.N.wXwX",
"wXwXM.M.M.M.M.G.~ . . . . X l C.G.M.M.S.l.. . . h G.B.M.M.M.M.M.M.M.M.M.M.B.G.i . . # ~ e . . X . . O S B.G.B.M.M.M.M.M.M.M.wXwX",
"wXwXM.M.M.M.B.S.g . . . q  .S.M.B.M.M.S.X.. . . h S.B.M.M.M.M.M.M.M.M.M.M.B.S.i . . . X . . X . . i 9.S.M.S.S.M.M.M.M.M.M.M.wXwX",
"wXwXd.d.d.d.s.g.q . . * f.g.s.s.d.d.s.d. .. . . h D.f.s.d.d.d.d.d.d.d.d.s.f.D.i . . . . X . . 2 ..S.d.d.9.l D d.d.d.d.d.d.d.wXwX",
"wXwXs.s.s.s.s.d.q . . * f.s.s.s.s.s.s.d. .. . . > ..g.d.s.s.s.s.s.s.s.s.d.g...* . . . . . & P d.d.s.s.d.0 . . S g.s.s.s.s.s.wXwX",
"wXwXp.p.p.p.p.a.q . . & i.p.p.p.p.p.p.a. .. . . . . f 9.h.p.p.p.p.p.p.h. .r . . . . . o k i.h.p.p.p.p.9.@ . . r a.p.p.p.p.p.wXwX",
"wXwXp.p.p.p.u.a.q . . & i.p.p.p.p.p.p.p. .. . . . . . O A p.a.u.u.a.i.A o . . . . . r  .a.p.u.p.p.p.p.8.@ . . r a.u.p.p.p.p.wXwX",
"wXwXw.w.w.w.w.t.0 . . & e.t.w.w.w.w.w.t.| . . . . . X . . > P t.t.P > . . X . . < ^ y.t.w.w.w.w.w.w.t.8.@ . . r y.w.w.w.w.w.wXwX",
"wXwXw.w.w.w.w.t.0 . . & e.w.w.w.w.w.w.t.| . . . > & . . X . . t q . . . . . @ D w.t.w.w.w.w.w.w.w.w.w.8.@ . . t t.w.w.w.w.w.wXwX",
"wXwXq.q.q.q.q.r.0 . . & e.q.q.q.q.q.q.q.| . . . k e.t . . . . . . . . . . f 7.r.q.e.q.q.q.q.q.q.q.q.q.8.@ . . t r.q.q.q.q.q.wXwX",
"wXwX0.0.0.0.0.q.0 . . & e.0.0.0.0.0.0.q.| . . . f r.r.} 2 . . X X . . 0 } r.0.0.0.0.0.0.0.0.0.0.0.0.0.8.@ . . t r.0.0.0.0.wXwXwX",
"wXwXwX4.4.4.4.5.q . . o } 6.4.4.4.4.4.5.{ . . . f 5.>.5.5.L & . . > L 5.5.5.6.5.4.4.4.4.4.4.4.4.4.4.6.E . . . t 5.4.4.4.4.wXwXwX",
"wXwXwX4.4.4.>.5.k . X . o j >.5.4.4.4.4.{ . . . f 5.>.4.4.5.>.C C >.5.4.4.G j { 5.4.>.4.4.4.4.4.5.+.j . . X . C 5.4.4.4.4.wXwXwX",
"wXwXwX:.:.:.:.2.O.@ . . . . & G 2.2.:.2.{ . . . f 3.:.2.:.:.2.3.3.2.:.3.G . . o d +.3.:.:.:.3.2.C @ . . . . & +.2.:.:.:.:.wXwXwX",
"wXwXwX:.:.:.:.:.2.E @ . . X . . 2 E 2.2.{ . . . s 3.:.:.:.:.:.:.:.:.:.3.d . O . . & G 2.2.2.K < . . X . . & } 2.:.:.:.:.wXwXwXwX",
"wXwXwXwX:.:.:.:.:.<.,.s . . . X . @ O.<.{ . . . s <.:.:.:.:.:.:.:.:.:.-.[ & . . X . . 2 G 7 . . . . . o d ,.<.:.:.:.:.:.wXwXwXwX",
"wXwXwXwXwX=.-.=.-.=.-.<.[ 6 . . . . E <.[ . . . s <.=.=.=.=.=.=.=.=.-.=.-.,.s X . . . . . . . . . . 8 [ <.-.=.-.=.-.=.wXwXwXwXwX",
"wXwXwXwXwX=.=.=.=.=.=.=.-.-.J < . 7 =.-.[ . . . s -.=.=.=.=.=.=.=.=.=.=.=.=.-.W 6 . . . X . . . < J -.-.=.=.=.=.=.=.=.wXwXwXwXwX",
"wXwXwXwXwXwX&.&.&.&.&.&.&.&.*.;.W =.&.&.[ . . . 7 1.=.&.&.&.&.&.&.&.&.&.&.&.&.&.*.H < . . . $ C &.*.&.&.&.&.&.&.&.&.wXwXwXwXwXwX",
"wXwXwXwXwXwXwX&.&.&.&.&.&.&.%.&.&.&.%.&.#.$ . . . y o.*.&.%.&.&.&.&.%.&.*.o.o.&.%.*.&.J C H #.*.&.%.&.&.&.&.&.&.&.wXwXwXwXwXwXwX",
"wXwXwXwXwXwXwXwX%.%.%.%.%.%.%.%.%.%.%.%.*.s . . . . O Z #.*.%.%.%.%.*.#.d O . C *.%.%.*.*.*.&.%.%.%.%.%.%.%.%.%.wXwXwXwXwXwXwXwX",
"wXwXwXwXwXwXwXwXwXwX%.%.%.%.%.%.%.%.%.%.%.#.6 . . . . . > H &.&.&.&.F & . . . < %.%.%.%.%.%.%.%.%.%.%.%.%.%.wXwXwXwXwXwXwXwXwXwX",
"wXwXwXwXwXwXwXwXwXwXwXwX%.%.%.%.%.%.%.%.%.%.%.Z O . . . . . 6 W Q : . . . . . 9 %.%.%.%.%.%.%.%.%.%.%.%.wXwXwXwXwXwXwXwXwXwXwXwX",
"wXwXwXwXwXwXwXwXwXwXwXwXwX%.%.%.%.%.%.%.%.%.%.&.! y . . . . . . . . . . . . y @.%.%.%.$.$.$.%.%.%.%.wXwXwXwXwXwXwXwXwXwXwXwXwXwX",
"wXwXwXwXwXwXwXwXwXwXwXwXwXwXwX%.%.%.%.%.%.%.%.$.%.&.Q : . . . . . . . . 6 Q &.%.%.%.%.%.%.%.%.%.%.wXwXwXwXwXwXwXwXwXwXwXwXwXwXwX",
"wXwXwXwXwXwXwXwXwXwXwXwXwXwXwXwXwX%.%.%.%.%.%.%.$.$.%.%.F & . . . . > F %.%.$.$.%.%.%.%.%.%.%.wXwXwXwXwXwXwXwXwXwXwXwXwXwXwXwXwX",
"wXwXwXwXwXwXwXwXwXwXwXwXwXwXwXwXwXwXwX$.$.$.$.$.$.%.$.$.&.@.Z 7 7 Z @.&.$.$.%.$.$.$.$.$.$.wXwXwXwXwXwXwXwXwXwXwXwXwXwXwXwXwXwXwX",
"wXwXwXwXwXwXwXwXwXwXwXwXwXwXwXwXwXwXwXwX$.$.$.$.$.$.$.$.@.%.&.%.%.&.$.$.$.$.$.$.$.$.$.wXwXwXwXwXwXwXwXwXwXwXwXwXwXwXwXwXwXwXwXwX",
"wXwXwXwXwXwXwXwXwXwXwXwXwXwXwXwXwXwXwXwXwXwX$.$.$.$.$.$.$.$.@.@.@.@.$.$.$.$.$.$.$.$.wXwXwXwXwXwXwXwXwXwXwXwXwXwXwXwXwXwXwXwXwXwX",
"wXwXwXwXwXwXwXwXwXwXwXwXwXwXwXwXwXwXwXwXwXwXwXwX$.$.$.$.$.$.$.$.$.$.$.$.$.$.$.$.wXwXwXwXwXwXwXwXwXwXwXwXwXwXwXwXwXwXwXwXwXwXwXwX",
"wXwXwXwXwXwXwXwXwXwXwXwXwXwXwXwXwXwXwXwXwXwXwXwXwXwX$.$.$.$.$.$.$.$.$.$.$.$.wXwXwXwXwXwXwXwXwXwXwXwXwXwXwXwXwXwXwXwXwXwXwXwXwXwX",
"wXwXwXwXwXwXwXwXwXwXwXwXwXwXwXwXwXwXwXwXwXwXwXwXwXwXwXwX$.$.$.$.$.$.$.$.wXwXwXwXwXwXwXwXwXwXwXwXwXwXwXwXwXwXwXwXwXwXwXwXwXwXwXwX"
};
