/* XPM */
static const char *patchcoin_testnet16[] = {
/* columns rows colors chars-per-pixel */
"16 16 176 2 ",
"   c #001C00",
".  c #0B280E",
"X  c #0E2A13",
"o  c #16002A",
"O  c #17002B",
"+  c #141F28",
"@  c #171E2B",
"#  c #261C2B",
"$  c #281D2D",
"%  c #1E2F25",
"&  c #19212C",
"*  c #1F282D",
"=  c #203725",
"-  c #24322D",
";  c #24302E",
":  c #263A2A",
">  c #273B2D",
",  c #202037",
"<  c #232931",
"1  c #272B35",
"2  c #26223D",
"3  c #2E3F34",
"4  c #2A1D4A",
"5  c #332151",
"6  c #362155",
"7  c #362057",
"8  c #350063",
"9  c #360065",
"0  c #3E1C61",
"q  c #3F1D6A",
"w  c #3F1476",
"e  c #42007B",
"r  c #44007F",
"t  c #411673",
"y  c #412363",
"u  c #442A64",
"i  c #46246E",
"p  c #48246D",
"a  c #472869",
"s  c #493264",
"d  c #4F3668",
"f  c #523565",
"g  c #593F64",
"h  c #4C2276",
"j  c #502B75",
"k  c #51267B",
"l  c #53257D",
"z  c #552C7C",
"x  c #573D70",
"c  c #3E4746",
"v  c #3F4847",
"b  c #42454E",
"n  c #484854",
"m  c #524E5F",
"M  c #5A4065",
"N  c #5B486D",
"B  c #5D506C",
"V  c #5E4972",
"C  c #5F4879",
"Z  c #61497A",
"A  c #654F79",
"S  c #6A517F",
"D  c #71527F",
"F  c #6D6079",
"G  c #6E637B",
"H  c #440080",
"J  c #470084",
"K  c #58098E",
"L  c #4A1285",
"P  c #4B1287",
"I  c #521C84",
"U  c #5A0991",
"Y  c #5D3281",
"T  c #742D91",
"R  c #7A2E9B",
"E  c #733A9C",
"W  c #5911A1",
"Q  c #6103A9",
"!  c #6403AD",
"~  c #6111AA",
"^  c #7416A4",
"/  c #752FA7",
"(  c #7C38A3",
")  c #7A30AE",
"_  c #7621B5",
"`  c #674184",
"'  c #745182",
"]  c #755282",
"[  c #755484",
"{  c #725F82",
"}  c #78578F",
"|  c #7E548E",
" . c #784F97",
".. c #7F459F",
"X. c #776784",
"o. c #786982",
"O. c #7C46A2",
"+. c #7600DA",
"@. c #7705DE",
"#. c #7800DC",
"$. c #7805DF",
"%. c #8239AD",
"&. c #83528F",
"*. c #805691",
"=. c #8B5599",
"-. c #8D769E",
";. c #8045A1",
":. c #8550A7",
">. c #8556A6",
",. c #9558BA",
"<. c #8F63AB",
"1. c #9A6DAB",
"2. c #9A6DAC",
"3. c #9779AB",
"4. c #A277A0",
"5. c #A57CBE",
"6. c #9118D7",
"7. c #9218D9",
"8. c #9635CD",
"9. c #9B28DE",
"0. c #A237DD",
"q. c #8607E7",
"w. c #8200F1",
"e. c #8707F0",
"r. c #8500F5",
"t. c #8F00FF",
"y. c #9104FA",
"u. c #9406FE",
"i. c #9C04FF",
"p. c #9814F2",
"a. c #9814F3",
"s. c #A200FF",
"d. c #B10FFF",
"f. c #A411FE",
"g. c #BD1EFF",
"h. c #BF1FFF",
"j. c #9D28E0",
"k. c #B632FF",
"l. c #C21DFF",
"z. c #D334FF",
"x. c #9F46CF",
"c. c #A848DA",
"v. c #B35BDE",
"b. c #B45CDF",
"n. c #A86CCB",
"m. c #B96ED7",
"M. c #BC70D9",
"N. c #B440F5",
"B. c #B945FB",
"V. c #CD44FF",
"C. c #CF44FF",
"Z. c #C158F6",
"A. c #C358FC",
"S. c #D95EFF",
"D. c #DC60FF",
"F. c #EB75FF",
"G. c #ED76FF",
"H. c #C389D9",
"J. c #C98DDF",
"K. c #CC97E3",
"L. c #D79EEF",
"P. c #DB9BF1",
"I. c #DD9CF3",
"U. c #DD9BF4",
"Y. c #DF9CF6",
"T. c #EE8EFF",
"R. c #EF8EFF",
"E. c #F38FFF",
"W. c #E1A1F3",
"Q. c #E2A3F6",
"!. c #EAA7FE",
"~. c #EFABFF",
"^. c #F6AEFF",
"/. c #FFA9FF",
"(. c #FFBAFF",
"). c None",
/* pixels */
").).).).).).$ ] ] # ).).).).).).",
").).).).).D U.K.K.Y.[ ).).).).).",
").).).M J.(.o.= : F ~.H.g ).).).",
").).2.^.-.X.3.W.Q.c F L.!.1.).).",
").*.P.3 n m v 5./.4.B { > I.| ).",
").M.A V T.E.}   b <.n.T.N S m.).",
").b.Z =.F. .- ,.:.% >.G.&.C v.).",
").x.A.x ` d ;.S.D...f Z.- O.c.).",
").0.E < N.s ( C.C.%.X 1 Y B.8.).",
").j.j T z.u . ) / * a k.R z 9.).",
").7.k p l.y h 6 2 _ h.h.i l 6.).",
").U p.& I q ^ d.f.0 6 5 , p.K ).",
").).! u.e.t 4 y.q.~ L W i.Q ).).",
").).).9 +.t.w @ @ L s.#.8 ).).).",
").).).).).J r.@.$.w.e ).).).).).",
").).).).).).O H r O ).).).).).)."
};
