/* XPM */
static const char *patchcoin64[] = {
/* columns rows colors chars-per-pixel */
"64 64 226 2 ",
"   c #000E00",
".  c #001500",
"X  c #001B00",
"o  c #002401",
"O  c #012A03",
"+  c #032E09",
"@  c #0B2C0B",
"#  c #043007",
"$  c #04340B",
"%  c #09330A",
"&  c #033A0E",
"*  c #0C390F",
"=  c #043D11",
"-  c #0E3C11",
";  c #083A14",
":  c #103D12",
">  c #034314",
",  c #0B4315",
"<  c #024D1A",
"1  c #0B4A19",
"2  c #134316",
"3  c #1A491B",
"4  c #04551F",
"5  c #025A23",
"6  c #0A5A24",
"7  c #1C5825",
"8  c #215522",
"9  c #275C28",
"0  c #0B6129",
"q  c #05662B",
"w  c #13642C",
"e  c #1B652D",
"r  c #0D6D31",
"t  c #026E30",
"y  c #166C33",
"u  c #027334",
"i  c #067636",
"p  c #1B7639",
"a  c #157637",
"s  c #23612B",
"d  c #2C612C",
"f  c #236C32",
"g  c #296C33",
"h  c #336A32",
"j  c #306730",
"k  c #25793B",
"l  c #28783B",
"z  c #33733A",
"x  c #3B763C",
"c  c #3F793F",
"v  c #3C7B41",
"b  c #04833E",
"n  c #0B833E",
"m  c #0B8441",
"M  c #088943",
"N  c #1B8744",
"B  c #03974B",
"V  c #1C934B",
"C  c #149C52",
"Z  c #238342",
"A  c #2B8746",
"S  c #398947",
"D  c #279C52",
"F  c #379B53",
"G  c #2B954E",
"H  c #02AB5A",
"J  c #0AA857",
"K  c #05B25E",
"L  c #14AC5B",
"P  c #2AAC5D",
"I  c #39AA5E",
"U  c #01BC65",
"Y  c #0BBA64",
"T  c #18B863",
"R  c #34BD6A",
"E  c #2BB060",
"W  c #4B8B4B",
"Q  c #438747",
"!  c #459A55",
"~  c #559755",
"^  c #45934F",
"/  c #5AAE63",
"(  c #4EBD6C",
")  c #57B86A",
"_  c #63AC64",
"`  c #61A761",
"'  c #6CB66B",
"]  c #70BC71",
"[  c #07C56A",
"{  c #0CC970",
"}  c #0BDE7C",
"|  c #03D577",
" . c #17D578",
".. c #16CA70",
"X. c #2ECA72",
"o. c #0BE17E",
"O. c #06E37F",
"+. c #12E17F",
"@. c #43C773",
"#. c #4AD37B",
"$. c #5EC070",
"%. c #66CD7B",
"&. c #76C778",
"*. c #6FD37F",
"=. c #38DE81",
"-. c #03EA85",
";. c #0EE681",
":. c #17E583",
">. c #01F58E",
",. c #03FB8F",
"<. c #0AFB8F",
"1. c #0EF18C",
"2. c #19F28E",
"3. c #16F68E",
"4. c #02FD92",
"5. c #0BFE92",
"6. c #02FF9B",
"7. c #0CFF9C",
"8. c #13FE92",
"9. c #1BFD93",
"0. c #14FF9A",
"q. c #1CFF9C",
"w. c #1FF190",
"e. c #23E181",
"r. c #2DE283",
"t. c #22EF8B",
"y. c #37E486",
"u. c #28F38D",
"i. c #23FE94",
"p. c #2BFE95",
"a. c #24FF9B",
"s. c #2DFF9B",
"d. c #34F592",
"f. c #33FE95",
"g. c #3BFE96",
"h. c #34FF9C",
"j. c #3CFE9B",
"k. c #3EF497",
"l. c #32F08D",
"z. c #13FFA1",
"x. c #22FFA2",
"c. c #3BFFA1",
"v. c #35FFA1",
"b. c #4CDD83",
"n. c #6CDA83",
"m. c #77D583",
"M. c #48E588",
"N. c #5DE98D",
"B. c #54E78A",
"V. c #5AED92",
"C. c #43FC96",
"Z. c #4CFC97",
"A. c #44FF99",
"S. c #4CFF99",
"D. c #44F493",
"F. c #53FB97",
"G. c #5AFA97",
"H. c #54FF9A",
"J. c #5CFE9A",
"K. c #55F293",
"L. c #46EA91",
"P. c #73EB91",
"I. c #63FD9B",
"U. c #6AFE9C",
"Y. c #68F192",
"T. c #74FE9D",
"R. c #7BFE9D",
"E. c #7AF499",
"W. c #68EC90",
"Q. c #46FFA1",
"!. c #4CFFA1",
"~. c #45FFA9",
"^. c #53FFA3",
"/. c #5CFFA3",
"(. c #65FFA2",
"). c #6AFFA4",
"_. c #69FFAD",
"`. c #73FFA4",
"'. c #7CFFA3",
"]. c #87DB87",
"[. c #86E38D",
"{. c #83ED93",
"}. c #8BEA92",
"|. c #94EA93",
" X c #92EE98",
".X c #89F49B",
"XX c #83FE9E",
"oX c #8BFD9E",
"OX c #86F299",
"+X c #9CF29B",
"@X c #92FC9F",
"#X c #9BFB9F",
"$X c #95F29B",
"%X c #A0F89F",
"&X c #84FDA3",
"*X c #8BFFA4",
"=X c #88FFA9",
"-X c #94FFA2",
";X c #9CFEA2",
":X c #94FFAB",
">X c #9BFFAA",
",X c #92FFB4",
"<X c #A2FCA1",
"1X c #A3FDA2",
"2X c #A1FFA2",
"3X c #A3FEA2",
"4X c #A3FFA2",
"5X c #A3FFA3",
"6X c #A1FCA0",
"7X c #A4FFA3",
"8X c #A4FEA2",
"9X c #A4FDA3",
"0X c #A6FEA5",
"qX c #A2FBA1",
"wX c #A8FEA7",
"eX c #A1FFAA",
"rX c #A5FFAB",
"tX c #AAFEA9",
"yX c #AEFFAD",
"uX c #AEFFAD",
"iX c #ACFFAB",
"pX c #A1F6A0",
"aX c #B0FFAF",
"sX c #B2FFB1",
"dX c None",
"fX c black",
/* pixels */
"dXdXdXdXdXdXdXdXdXdXdXdXdXdXdXdXdXdXdXdXdXdXdXdXdXdXdXdX2X2X2X2X2X2X2X2XdXdXdXdXdXdXdXdXdXdXdXdXdXdXdXdXdXdXdXdXdXdXdXdXdXdXdXdX",
"dXdXdXdXdXdXdXdXdXdXdXdXdXdXdXdXdXdXdXdXdXdXdXdXdXdX2X2X8X8X8X8X8X8X8X8X8X2XdXdXdXdXdXdXdXdXdXdXdXdXdXdXdXdXdXdXdXdXdXdXdXdXdXdX",
"dXdXdXdXdXdXdXdXdXdXdXdXdXdXdXdXdXdXdXdXdXdXdXdX2X2X8X8X8X8X8X2X2X8X8X8X8X8X2X2XdXdXdXdXdXdXdXdXdXdXdXdXdXdXdXdXdXdXdXdXdXdXdXdX",
"dXdXdXdXdXdXdXdXdXdXdXdXdXdXdXdXdXdXdXdXdXdX2X2X8X8X8X2X8X2XpXpXpXpX2X8X2X8X8X8X2X2XdXdXdXdXdXdXdXdXdXdXdXdXdXdXdXdXdXdXdXdXdXdX",
"dXdXdXdXdXdXdXdXdXdXdXdXdXdXdXdXdXdXdXdX2X2X8X8X8X2X8X2X2X9XuXuXuXuX8X2X8X8X8X8X8X8X2XdXdXdXdXdXdXdXdXdXdXdXdXdXdXdXdXdXdXdXdXdX",
"dXdXdXdXdXdXdXdXdXdXdXdXdXdXdXdXdXdXdX2X2X8X8X2X2X8X2X2XuXpX_ c c ' pXuXpX2X8X8X2X8X8X8X2XdXdXdXdXdXdXdXdXdXdXdXdXdXdXdXdXdXdXdX",
"dXdXdXdXdXdXdXdXdXdXdXdXdXdXdXdXdX2X2X8X8X8X2X8X2X2XtXtX] 2 . X . . 3 &.iXtX2X8X8X2X8X8X8X2X2XdXdXdXdXdXdXdXdXdXdXdXdXdXdXdXdXdX",
"dXdXdXdXdXdXdXdXdXdXdXdXdXdXdX2X2X8X8X8X8X2X8X2X9XuX].d X X O O O O X X j ].aX9X2X2X8X2X8X8X8X2X2XdXdXdXdXdXdXdXdXdXdXdXdXdXdXdX",
"dXdXdXdXdXdXdXdXdXdXdXdXdX8X2X8X8X8X8X8X8X8X2X9X+XQ o X O O X o o X O O X O W +XaX2X2X8X2X8X8X8X8X2XdXdXdXdXdXdXdXdXdXdXdXdXdXdX",
"dXdXdXdXdXdXdXdXdXdXdXdX2X2X8X8X8X8X8X8X8X8X2X9X9   O O X X 9 ].&.8 . o O o . * _ tX9X2X8X8X8X8X8X8X2X8XdXdXdXdXdXdXdXdXdXdXdXdX",
"dXdXdXdXdXdXdXdXdXdX2X2X8X8X8X2X8X2XpXpX2X2X9X+X@ o o . 2 ' tXtXtXwX_ : . o O o . h 9X8X2X2X8X8X8X8X8X8X8X8XdXdXdXdXdXdXdXdXdXdX",
"dXdXdXdXdXdXdXdX2X2X8X8X8X2X8X2X2X9XuXuXiX2X%XtXW X % ~ %XuX2X2X2X2XuX+XW O X O O . ~ uXpX8X2X2X2X8X2X8X8X8X2X2XdXdXdXdXdXdXdXdX",
"dXdXdXdXdXdXdX2X8X8X2X2X8X2X2X8XaX|.' ` &.9XuX2X9X].|.aX9XpX2X8X8X2X2X9XaX[.h o O X 3 2X8X2X8XtX8X2X2X8X2X8X8X8X2XdXdXdXdXdXdXdX",
"dXdXdXdXdXdX2X2X2X2X2X8X2X2XuXpX~ % X . X 3 &.uXwX9X9X2X2X8X2X2X8X2X8X2XpXwXsXj X o % |.9X9X9X[.pXuX2X2X8X2X2X2X2X2XdXdXdXdXdXdX",
"dXdXdXdXdX8X8X8X8X8X2X2XtXtX] 2 . o O O O X X h ].uX9XpX8X8X8X8X8X8X8X8X8X%XuXc X o % |.wX#Xd X 3 &.uXtX2X2X8X8X8X8X8XdXdXdXdXdX",
"dXdXdXdXdX2X2X2X2X;X9XuX].d X X O o X X X O O X O W +XuX2X;X2X2X2X2X2X2X2X#XuXx X o # |.uX] . O X X h ].uXeX;X2X2X2X2XdXdXdXdXdX",
"dXdXdXdX;X;X;X;X#XeX XQ o X O O X X v ] 8 . o O o . : _ eXeX#X;X;X;X;X;X;X#XrXx X o # }.rX].O X O O X O W $XeX#X;X;X;X;XdXdXdXdX",
"dXdXdX-X-X-X-X@X>X&.% . o O X X 9 *.eXeX;X/ - . o O o . 8 &.eX;X@X-X-X-X-X@XeXx X o # }.;X;Xm.7 . o O o . - m.>X@X-X-X-XdXdXdXdX",
"dXdXdX-X-X-X@X>X[.@ X O o . : ) >X>XoXoX@X>X.XQ O X O O X X z [.>X-XoX-X-XoX>Xz X o % {.>XoX>X>X/ : . o O X * {.-X@X-X-X-XdXdXdX",
"dXdXdXoXoXoXoX:XQ . O o O ^ .X:XoXoX*XoXoXoX*X:Xm.g X X O o . O ^ .X:XoXoXoX:Xv . o @ {.*XoXoXoX:XOXS O o O . ! :XoXoXoXoXdXdXdX",
"dXdXdXXXXXXXXX*Xs X o O n.:X&XXXXXXXXXXXXXXXXXXX*X*X$.7 o o O o . 2 ) *X*XXX*X%.$ X S *XXXXXXXXXXX&X:X%.O O X z *XXXXXXXXXdXdXdX",
"dXdXXXXXXXXXR.&Xs X o : XXR.R.XXXXXXXXXXXXXXXXXXR.&X,X%.O o o O O X X 7 %.=X&X&XP.n.&XXXXXXXXXXXXXR.XXE.% o X g *XR.XXXXXXdXdXdX",
"dXdXR.R.R.R.R.&Xs X o - E.R.R.R.R.R.R.R.R.R.R.R.=XP.l o o O O X X O O X o l P.=X'.'.R.R.R.R.R.R.R.R.'.P.% o X g &XR.R.R.R.R.dXdX",
"dXdXT.T.T.T.T.'.s X o - T.T.T.T.T.T.T.T.T.T.'.T.! + . o O X X f f . X O o . $ ! T.'.T.T.T.T.T.T.T.T.'.P.% o X g '.T.T.T.T.T.dXdX",
"dXdXT.T.T.T.T.`.e X o - U.T.T.T.T.T.T.T.T.`.( 2 . o O o . 2 ( `.`.( 2 . o O o . 2 ( `.T.T.T.T.T.T.T.T.Y.% o X g `.T.T.T.T.T.dXdX",
"dXdXU.U.U.U.U.`.e X o , U.U.U.U.U.U.U.U.`.l . X O o . + F U.`.U.U.`.U.F + . O O X . A `.U.U.U.U.U.U.U.Y.% o X f `.U.U.U.U.U.dXdX",
"dXdXU.U.U.U.I.).7 X o - I.U.I.I.I.I.I.).N.o o O X X l N.`.U.I.U.U.I.U.`.N.l X X O o + V.U.I.U.U.U.I.U.Y.% o X f ).I.U.U.U.U.dXdX",
"dXdXI.I.I.I.I.).G     f ).I.I.(.).(.I.(.B.O o o 1 #.).I.I.I.I.I.I.I.I.I.I.).#., o o $ N.I.I.I.I.I.I.I.V.% o X f ).I.I.I.I.I.dXdX",
"dXdXJ.J.J.J.J.J.J.I F K.J.(.(.@.A b.I.I.B.O O . A _.G.J.J.J.J.J.J.J.J.J.J.G._.k X o # B.I.J.J.J.J.G.(.V.# o X y (.J.J.J.J.J.dXdX",
"dXdXJ.J.J.J.J.J.J././.J./.b.e X . % B./.M.O O . Z /.G.J.J.J.J.J.J.J.J.J.J.G./.k X o # B.J.J.J.G.J./.#.7 o O . A /.G.J.J.J.J.dXdX",
"dXdXH.H.H.H.H.H.H.F./.K.A o X O O . @./.b.O O . Z /.F.H.H.H.H.H.H.H.H.H.H.F./.p X o # M.H.F.H./.M.k o X O o X #./.F.H.H.H.H.dXdX",
"dXdXS.S.S.S.S.S.S.H.E * . o O o . e Z.H.M.O O . Z ^.Z.S.S.S.S.S.S.S.S.S.S.Z.^.p X o # M.F.^.Z.D $ . o O X . G ^.Z.S.S.S.S.S.dXdX",
"dXdXS.S.S.S.S.Z.!.Z . o O o . & P S.S.S.M.O O . Z ^.Z.S.S.S.S.S.S.S.S.S.S.Z.!.p X o # L.^.R 1 . o O o . , R !.S.S.S.S.S.S.S.dXdX",
"dXdXA.A.A.A.C.!.X.. O O X o N D.!.C.C.S.y.O O . N !.C.A.A.A.A.A.A.A.A.A.A.C.!.p X o $ X.w X X O O . O D D.S.C.C.A.A.A.A.A.A.dXdX",
"dXdXA.A.A.A.C.Q.p X O o w =.Q.A.C.C.C.A.y.O O . N Q.C.A.A.A.A.A.A.A.A.A.A.C.Q.a . O O o X O O X X a y.Q.A.Q.Q.A.C.A.A.A.A.A.dXdX",
"dXdXg.g.g.g.g.A.w X o & k.A.g.g.g.g.g.A.y.O O . N ~.k.g.g.g.g.g.g.g.g.g.g.k.~.p . O o o O o . 6 X.Q.g.g.y.V P g.g.g.g.g.g.g.dXdX",
"dXdXg.g.g.g.g.j.0 X o = d.g.g.g.g.g.g.j.r.O o o 1 X.c.j.g.g.g.g.g.g.g.g.j.c.X.= o o O o . = E j.j.g.g.j.6     D c.g.g.g.g.g.dXdX",
"dXdXf.f.f.f.f.j.0 X o = d.h.f.f.f.f.f.h.r.O o o X X a l.c.f.f.f.f.f.f.c.r.y X X O o . O V d.c.f.f.f.h.l.$ O X y j.f.f.f.f.f.dXdX",
"dXdXf.f.f.f.f.h.0 X o = d.f.f.f.f.f.f.h.r.O o o O O . + C f.h.f.f.h.d.V O . O O X X r r.v.f.f.f.f.f.h.l.$ o X r h.f.f.f.f.f.dXdX",
"dXdXp.p.p.p.p.s.0 X o = p.p.p.p.p.p.p.s.e.O o o X o O o . > T s.s.T > . o O o . 1 ..h.s.p.p.p.p.p.p.s.u.$ o X r h.p.p.p.p.p.dXdX",
"dXdXp.p.p.p.p.s.0 X o = p.p.p.p.p.p.p.s.e.O o o 1 = . O O X X r r . X O o . $ L p.s.p.p.p.p.p.p.p.p.p.u.$ o X r s.p.p.p.p.p.dXdX",
"dXdXi.i.i.i.i.a.0 X o = u.i.i.i.i.i.i.a.e.O O . m i.i o X O O X X O O X o n t.s.i.i.i.i.i.i.i.i.i.i.i.t.$ o X r a.i.i.i.i.i.dXdX",
"dXdXi.i.i.i.i.a.0 X o = i.i.i.i.i.i.i.a.:.O O . n x.a. .6 . X O O X . 6  .a.i.i.i.i.i.i.i.i.i.i.i.i.i.w.& o X r a.i.i.i.i.dXdXdX",
"dXdXdX9.9.9.9.q.q X o O  .x.9.9.9.9.9.q.:.O O . m q.3.q.q.L = . . > T q.q.q.q.q.9.9.9.9.9.9.9.9.9.9.x...O O X r q.9.9.9.9.dXdXdX",
"dXdXdX9.9.9.9.q.M . O o O M 2.q.9.9.9.q.:.O O . m q.9.9.9.q.2.J J 2.q.9.9.T M  .q.9.9.9.9.9.9.9.q.2.m o o O . C q.9.9.9.9.dXdXdX",
"dXdXdX8.8.8.8.8.:.+ X O o . & L 8.0.8.0.+.O O . n q.8.9.8.8.8.q.q.8.3.q.L . . O M 2.q.8.8.8.q.8.J & . o O X = 2.8.8.8.8.8.dXdXdX",
"dXdXdX8.8.8.8.8.0.{ & . o O o . 4  .8.8.+.O O . n 0.8.8.8.8.8.8.8.8.8.0.m . # o . & J 8.0.0.{ < . o O o . =  .0.8.8.8.8.dXdXdXdX",
"dXdXdXdX8.8.8.8.8.0.1.M o X O O X + ;.0.o.O O . b 0.8.8.5.5.5.8.8.8.8.0.} & . o O o . 5 Y u X X O O . O M 1.0.8.8.8.8.8.dXdXdXdX",
"dXdXdXdXdX5.5.5.5.5.5.7.} q X X O . { 7.} O O . b 7.<.5.5.5.5.5.5.5.5.5.7.1.M o X O O X . X O O X X t O.7.5.<.5.5.5.5.dXdXdXdXdX",
"dXdXdXdXdX5.5.5.5.5.5.<.5.7.[ < o u 5.5.O.O O . M 7.<.5.5.5.5.5.5.5.5.5.5.5.7.} q X X O O O o . < [ 7.5.<.5.5.5.5.5.5.dXdXdXdXdX",
"dXdXdXdXdXdX5.5.5.5.5.5.5.5.6.4.O.6.5.6.O.O O X u 7.4.,.5.5.5.5.5.5.5.5.,.6.5.6.6.[ < X X X & H 6.6.,.5.5.5.5.5.5.5.dXdXdXdXdXdX",
"dXdXdXdXdXdXdX5.5.5.5.5.5.5.,.5.6.5.5.5.>.= o o o i -.6.5.,.5.5.5.5.,.5.6.-.-.6.,.6.4.[ H U >.6.5.5.5.5.5.5.5.5.5.dXdXdXdXdXdXdX",
"dXdXdXdXdXdXdXdX4.4.4.4.4.4.4.4.4.4.4.,.6.M . O o . + B 4.6.4.4.4.4.6.>.B $ O H 6.,.4.6.6.6.4.,.4.4.4.4.4.4.4.4.dXdXdXdXdXdXdXdX",
"dXdXdXdXdXdXdXdXdXdX4.4.4.4.4.4.4.4.4.4.4.>.5 . o O o . > U 6.4.6.4.K = . o X = 4.4.4.4.,.4.4.4.4.4.4.4.4.4.dXdXdXdXdXdXdXdXdXdX",
"dXdXdXdXdXdXdXdXdXdXdXdX4.4.4.4.4.4.4.4.4.4.4.B + . o O X X q | | 5 X X O O   t 4.4.4.4.4.4.4.4.4.4.4.4.dXdXdXdXdXdXdXdXdXdXdXdX",
"dXdXdXdXdXdXdXdXdXdXdXdXdX4.4.4.4.4.4.4.4.4.4.6.-.i o X O O . o o X O O X o b >.4.4.4.4.4.4.4.4.4.4.dXdXdXdXdXdXdXdXdXdXdXdXdXdX",
"dXdXdXdXdXdXdXdXdXdXdXdXdXdXdX4.4.4.4.4.4.4.4.,.4.6.| 5 . X O O O O X X 5 | 6.4.4.4.4.4.4.4.4.4.4.dXdXdXdXdXdXdXdXdXdXdXdXdXdXdX",
"dXdXdXdXdXdXdXdXdXdXdXdXdXdXdXdXdX4.4.4.4.4.4.4.4.,.6.4.K = . X X . > U 6.6.,.4.4.4.4.4.4.4.4.dXdXdXdXdXdXdXdXdXdXdXdXdXdXdXdXdX",
"dXdXdXdXdXdXdXdXdXdXdXdXdXdXdXdXdXdXdX4.4.4.4.4.4.4.4.4.6.>.H u u H >.6.4.4.4.4.4.4.4.4.4.dXdXdXdXdXdXdXdXdXdXdXdXdXdXdXdXdXdXdX",
"dXdXdXdXdXdXdXdXdXdXdXdXdXdXdXdXdXdXdXdX4.4.4.4.4.4.4.4.4.4.6.6.6.6.4.,.4.4.4.4.4.4.4.dXdXdXdXdXdXdXdXdXdXdXdXdXdXdXdXdXdXdXdXdX",
"dXdXdXdXdXdXdXdXdXdXdXdXdXdXdXdXdXdXdXdXdXdX4.4.4.4.4.4.4.4.>.>.>.>.4.4.4.4.4.4.4.4.dXdXdXdXdXdXdXdXdXdXdXdXdXdXdXdXdXdXdXdXdXdX",
"dXdXdXdXdXdXdXdXdXdXdXdXdXdXdXdXdXdXdXdXdXdXdXdX4.4.4.4.4.4.4.4.4.4.4.4.4.4.4.4.dXdXdXdXdXdXdXdXdXdXdXdXdXdXdXdXdXdXdXdXdXdXdXdX",
"dXdXdXdXdXdXdXdXdXdXdXdXdXdXdXdXdXdXdXdXdXdXdXdXdXdX4.4.4.4.4.4.4.4.4.4.4.4.dXdXdXdXdXdXdXdXdXdXdXdXdXdXdXdXdXdXdXdXdXdXdXdXdXdX",
"dXdXdXdXdXdXdXdXdXdXdXdXdXdXdXdXdXdXdXdXdXdXdXdXdXdXdXdX>.>.>.>.4.4.4.4.dXdXdXdXdXdXdXdXdXdXdXdXdXdXdXdXdXdXdXdXdXdXdXdXdXdXdXdX"
};
