/* XPM */
static const char *patchcoin16[] = {
/* columns rows colors chars-per-pixel */
"16 16 181 2 ",
"   c #001400",
".  c #07340D",
"X  c #00380C",
"o  c #0E390E",
"O  c #043F11",
"+  c #053D17",
"@  c #0E3E11",
"#  c #133D18",
"$  c #034112",
"%  c #044112",
"&  c #054117",
"*  c #004E1A",
"=  c #054D1A",
"-  c #0A4818",
";  c #0C4A19",
":  c #0F4B1A",
">  c #09491C",
",  c #0C4F1D",
"<  c #114315",
"1  c #134219",
"2  c #154919",
"3  c #14491D",
"4  c #124F1D",
"5  c #194D1D",
"6  c #1E4C1D",
"7  c #09531F",
"8  c #0E5220",
"9  c #0A5520",
"0  c #025827",
"q  c #0C5925",
"w  c #095D24",
"e  c #135622",
"r  c #115B24",
"t  c #165428",
"y  c #1B5B28",
"u  c #195F2C",
"i  c #2A5C2A",
"p  c #2D5B2D",
"a  c #295E2C",
"s  c #006129",
"d  c #056028",
"f  c #00662B",
"g  c #1A612A",
"h  c #136D31",
"j  c #007C3A",
"k  c #007D3A",
"l  c #007E3C",
"z  c #0B7F3E",
"x  c #0C7E3C",
"c  c #197E3E",
"v  c #316630",
"b  c #267438",
"n  c #247A3C",
"m  c #3F7F42",
"M  c #407B40",
"N  c #437F43",
"B  c #08803D",
"V  c #08843F",
"C  c #008841",
"Z  c #0C9148",
"A  c #2E8141",
"S  c #13AF5D",
"D  c #03B15D",
"F  c #05B160",
"G  c #00BB63",
"H  c #04BF66",
"J  c #10BF68",
"K  c #36AD60",
"L  c #448143",
"P  c #418245",
"I  c #478446",
"U  c #4A8F4D",
"Y  c #429150",
"T  c #4D9C57",
"R  c #499F59",
"E  c #69AD67",
"W  c #6AB168",
"Q  c #71BB70",
"!  c #72BF72",
"~  c #05C66B",
"^  c #05CF71",
"/  c #12D678",
"(  c #36CF7D",
")  c #28D377",
"_  c #2BD67A",
"`  c #2CD97C",
"'  c #37D27F",
"]  c #48CA7C",
"[  c #48CC7C",
"{  c #55D77F",
"}  c #68C273",
"|  c #78C577",
" . c #13D181",
".. c #39DC80",
"X. c #00EA86",
"o. c #00EC89",
"O. c #1EE285",
"+. c #1EE488",
"@. c #00F78D",
"#. c #00F88E",
"$. c #14F18C",
"%. c #00FD92",
"&. c #00FC96",
"*. c #00FD97",
"=. c #09FD91",
"-. c #09FD92",
";. c #01FF98",
":. c #02FC9A",
">. c #00FF9A",
",. c #02FF9A",
"<. c #02FE9B",
"1. c #00FF9E",
"2. c #01FF9E",
"3. c #00FF9F",
"4. c #09FF99",
"5. c #09FF9A",
"6. c #09FF9F",
"7. c #15F790",
"8. c #15FF98",
"9. c #21F58E",
"0. c #22F78F",
"q. c #31F38E",
"w. c #34EC93",
"e. c #31F790",
"r. c #35F196",
"t. c #09FFA6",
"y. c #25FFA3",
"u. c #27FFA6",
"i. c #28FFAA",
"p. c #38FFA0",
"a. c #4ADC82",
"s. c #7ECE8A",
"d. c #68DE85",
"f. c #76D782",
"g. c #5DE388",
"h. c #43FF98",
"j. c #45FF99",
"k. c #45FF9A",
"l. c #58FF9C",
"z. c #74E28F",
"x. c #64E997",
"c. c #66ED99",
"v. c #76E592",
"b. c #65F594",
"n. c #66F595",
"m. c #78F497",
"M. c #79F799",
"N. c #47FFA3",
"B. c #48FFA3",
"V. c #5AFFA0",
"C. c #5EFFA4",
"Z. c #5FFFA6",
"A. c #6FFFA4",
"S. c #71FFA7",
"D. c #82D081",
"F. c #96ED95",
"G. c #9BF09A",
"H. c #9EF99D",
"J. c #A0FA9F",
"K. c #8AFFAC",
"L. c #8BFFAC",
"P. c #96FEA3",
"I. c #99FFA6",
"U. c #9AFFA6",
"Y. c #8DFFB0",
"T. c #A3FDA2",
"R. c #A4FFA3",
"E. c #A8FDA7",
"W. c #A9FEA8",
"Q. c #AAFFA9",
"!. c #ABFEAA",
"~. c #ABFFAA",
"^. c #ADFCAC",
"/. c #ACFFAC",
"(. c #ADFFAC",
"). c #AEFEAE",
"_. c #B2FEB1",
"`. c #B2FFB1",
"'. c #BAFFB9",
"]. c #BAFFBA",
"[. c None",
/* pixels */
"[.[.[.[.[.[.~._._.E.[.[.[.[.[.[.",
"[.[.[.[.J.R.F.N L G.).H.[.[.[.[.",
"[.[.[.).~.~.i M I o ! _.).[.[.[.",
"[.T.~.Q 6 v D.].].E p | W ).T.[.",
"[.I.m < } T 5 U P.s.a f.@ P I.[.",
"[.m.# v.L.Y.Y   2 R d.L.z.1 M.[.",
"[.b.y c.A.b 4 g.{ ; A S.x.3 b.[.",
"[.l.a.g K u [ C.C.] t V.n e l.[.",
"[.j.8 c h.r ( B.N.' . ; h ..j.[.",
"[.q.> w.p.9 - ` _ , 7 ) r.q e.[.",
"[.9.& +.y.w x = $ S u.i.O.+ 9.[.",
"[.8.B O / d  .7.$.z Z J % V 8.[.",
"[.-.5.D ~ 0 F t.6.^ f * H 5.-.[.",
"[.[.[.:.2.G X C j s :.:.:.[.[.[.",
"[.[.[.[.@.:.o.j l X.%.#.[.[.[.[.",
"[.[.[.[.[.[.&.2.2.&.[.[.[.[.[.[."
};
