/* XPM */
static const char *patchcoin16[] = {
/* columns rows colors chars-per-pixel */
"16 16 176 2 ",
"   c #001000",
".  c #043208",
"X  c #06300B",
"o  c #002B19",
"O  c #002C19",
"+  c #1C2C1B",
"@  c #1C2E1C",
"#  c #0F4617",
"$  c #004816",
"%  c #014B18",
"&  c #004A19",
"*  c #094C1A",
"=  c #0B4F1D",
"-  c #174517",
";  c #114C1B",
":  c #134C1B",
">  c #1B491B",
",  c #1C4B1C",
"<  c #02551F",
"1  c #0D5420",
"2  c #055A23",
"3  c #215220",
"4  c #2D5F2C",
"5  c #026229",
"6  c #076A2F",
"7  c #086E31",
"8  c #006338",
"9  c #00653A",
"0  c #077032",
"q  c #06783B",
"w  c #077D3C",
"e  c #0C7A3A",
"r  c #0D7C3E",
"t  c #127B3A",
"y  c #117F3C",
"u  c #1B7B3B",
"i  c #2D622D",
"p  c #2B6931",
"a  c #306D35",
"s  c #23763E",
"d  c #36773C",
"f  c #40643F",
"g  c #007C47",
"h  c #0E7D40",
"j  c #007E4A",
"k  c #007E4B",
"l  c #237441",
"z  c #377D44",
"x  c #406540",
"c  c #407543",
"v  c #028642",
"b  c #008B44",
"n  c #0D8A44",
"m  c #0F8B47",
"M  c #00844C",
"N  c #168744",
"B  c #108C49",
"V  c #00974F",
"C  c #0A964C",
"Z  c #00984D",
"A  c #179248",
"S  c #1F934C",
"D  c #0A8D53",
"F  c #0A9055",
"G  c #298544",
"H  c #388046",
"J  c #328A49",
"K  c #3D884B",
"L  c #33904A",
"P  c #2F9750",
"I  c #01B05C",
"U  c #2AAD5D",
"Y  c #04A861",
"T  c #04AC63",
"R  c #04B660",
"E  c #0DB16E",
"W  c #21A062",
"Q  c #23A967",
"!  c #39A963",
"~  c #39AC64",
"^  c #22B462",
"/  c #2BB165",
"(  c #24BA66",
")  c #2EB66A",
"_  c #36B161",
"`  c #408E4F",
"'  c #4E8B4D",
"]  c #4F904F",
"[  c #518051",
"{  c #538053",
"}  c #548153",
"|  c #548454",
" . c #568D5B",
".. c #4D9653",
"X. c #489D5A",
"o. c #569655",
"O. c #579556",
"+. c #58905D",
"@. c #40A65B",
"#. c #459E64",
"$. c #49A86A",
"%. c #43B466",
"&. c #48B365",
"*. c #57B76B",
"=. c #66AE65",
"-. c #6FAA6E",
";. c #6FAB6E",
":. c #6DB76C",
">. c #6FA975",
",. c #16C069",
"<. c #00D97D",
"1. c #00DA7F",
"2. c #36CC7A",
"3. c #4EC572",
"4. c #47CE7D",
"5. c #73C877",
"6. c #65D27E",
"7. c #1BD581",
"8. c #1CD782",
"9. c #2BDA83",
"0. c #2BDD85",
"q. c #3ADA83",
"w. c #00E381",
"e. c #00E582",
"r. c #04EB87",
"t. c #00EF8D",
"y. c #03F489",
"u. c #00F38F",
"i. c #0FF790",
"p. c #05FC92",
"a. c #05FF96",
"s. c #00FF98",
"d. c #06FF9E",
"f. c #10F790",
"g. c #13FE9A",
"h. c #3FF792",
"j. c #33FF9A",
"k. c #00FFAB",
"l. c #15FFA6",
"z. c #23FFA9",
"x. c #25FFAA",
"c. c #24FFAD",
"v. c #3CFFB2",
"b. c #4BD884",
"n. c #5EDB89",
"m. c #5FDC8A",
"M. c #71D58A",
"N. c #72D78C",
"B. c #43FD96",
"V. c #56F997",
"C. c #56FE99",
"Z. c #48FFA7",
"A. c #48FFA9",
"S. c #62FFAA",
"D. c #64FFAC",
"F. c #7BFFB4",
"G. c #7CFFB6",
"H. c #8CD88B",
"J. c #90DD90",
"K. c #93E892",
"L. c #97F59E",
"P. c #9BF399",
"I. c #9FF29E",
"U. c #99F79F",
"Y. c #A0F49F",
"T. c #92FFB1",
"R. c #93FFB2",
"E. c #95FFB5",
"W. c #A2F5A1",
"Q. c #A4F8A1",
"!. c #A8FFA7",
"~. c #ACFFAB",
"^. c #B0FFAF",
"/. c #B0FFBA",
"(. c #C0FFBF",
"). c None",
/* pixels */
").).).).).).@ } [ + ).).).).).).",
").).).).).[ I.K.K.Y.| ).).).).).",
").).).x J.(.O.- > ] ~.H.f ).).).",
").).;.^.=.O.:.W.Q.4 ' P.!.;.).).",
").+.L.3 a d i 5./.>.c .., U. .).",
").N.K H T.E.X.  p *.6.T.z ` M.).",
").m.L $.F.@.: 3.%.# &.G.#.J n.).",
").4.C.G P s ~ S.D.! l V.: _ b.).",
").q.U = h.u / A.Z.) . 1 S B.2.).",
").0.N W v.t . ( ^ * y j.Q A 9.).",
").8.m h c.e m 7 2 ,.x.z.r B 7.).",
").F i.% C w E l.g.q 0 6 < f.D ).",
").).T a.y.v 5 p.r.R Z I d.Y ).).",
").).).9 <.s.b % $ V k.<.8 ).).).",
").).).).).M u.w.e.t.g ).).).).).",
").).).).).).O k k o ).).).).).)."
};
