/* XPM */
static const char *patchcoin32[] = {
/* columns rows colors chars-per-pixel */
"32 32 191 2 ",
"   c #000300",
".  c #000B00",
"X  c #001300",
"o  c #001A01",
"O  c #012303",
"+  c #022C04",
"@  c #032C09",
"#  c #033109",
"$  c #0C350E",
"%  c #023107",
"&  c #033B10",
"*  c #0D3B11",
"=  c #133E13",
"-  c #054415",
";  c #0C4315",
":  c #034A19",
">  c #0A471A",
",  c #144417",
"<  c #144518",
"1  c #134A1B",
"2  c #1A4B1E",
"3  c #01541E",
"4  c #16531F",
"5  c #134D20",
"6  c #0C5522",
"7  c #045E25",
"8  c #0D5D25",
"9  c #005620",
"0  c #195C25",
"q  c #235623",
"w  c #265B27",
"e  c #006B2D",
"r  c #07662B",
"t  c #056D31",
"y  c #1E6B31",
"u  c #067837",
"i  c #1A7939",
"p  c #2B662E",
"a  c #2F6E34",
"s  c #326831",
"d  c #39783C",
"f  c #3A7C41",
"g  c #407D40",
"h  c #08813D",
"j  c #14823E",
"k  c #2C803F",
"l  c #038E45",
"z  c #0C8B44",
"x  c #038E49",
"c  c #1B8A46",
"v  c #138843",
"b  c #0C9348",
"n  c #0D9850",
"m  c #218945",
"M  c #2C8947",
"N  c #368A4A",
"B  c #2C914D",
"V  c #3F904C",
"C  c #259D53",
"Z  c #06AB59",
"A  c #18B25F",
"S  c #2DA558",
"D  c #03BB64",
"F  c #10B962",
"G  c #2DB96D",
"H  c #3ABD6B",
"J  c #32BB68",
"K  c #4A8A4A",
"L  c #49914E",
"P  c #478E50",
"I  c #4E9452",
"U  c #579656",
"Y  c #4CAF63",
"T  c #4FB566",
"R  c #5AB66A",
"E  c #44BD72",
"W  c #64AC63",
"Q  c #62BC6F",
"!  c #6CBB6F",
"~  c #67B067",
"^  c #76BF75",
"/  c #00C36B",
"(  c #05C46A",
")  c #11C169",
"_  c #07CA71",
"`  c #19C574",
"'  c #08D374",
"]  c #02DD7B",
"[  c #14DF7E",
"{  c #37C16E",
"}  c #32C472",
"|  c #30CA72",
" . c #2BD67A",
".. c #42C46F",
"X. c #47C376",
"o. c #7DCD7C",
"O. c #76C778",
"+. c #03E986",
"@. c #1CE989",
"#. c #03FA8F",
"$. c #09F48B",
"%. c #11F38D",
"&. c #11F98E",
"*. c #00F790",
"=. c #01FC92",
"-. c #0BFD92",
";. c #03FF9A",
":. c #0CFF9B",
">. c #12FE94",
",. c #1DFC93",
"<. c #13FF99",
"1. c #1AFE9B",
"2. c #2CEF8C",
"3. c #36E486",
"4. c #2DF28E",
"5. c #25F28E",
"6. c #26FE94",
"7. c #2FFE95",
"8. c #29FE9B",
"9. c #23FA97",
"0. c #36FD95",
"q. c #3DFD96",
"w. c #30FE98",
"e. c #39FE9A",
"r. c #38F697",
"t. c #1BFFA3",
"y. c #22FFA2",
"u. c #2AFFA0",
"i. c #33FFA0",
"p. c #3CFFA2",
"a. c #53DA81",
"s. c #5FDF86",
"d. c #6CD983",
"f. c #7AD884",
"g. c #48E386",
"h. c #53E68D",
"j. c #44FD97",
"k. c #41FD9A",
"l. c #49FE99",
"z. c #48FD97",
"x. c #51FD97",
"c. c #58F996",
"v. c #52FE99",
"b. c #5CFD9B",
"n. c #7CE28B",
"m. c #68EF93",
"M. c #7AEA93",
"N. c #66FE9C",
"B. c #6FFE9C",
"V. c #66F396",
"C. c #73FF9E",
"Z. c #79FE9D",
"A. c #74F397",
"S. c #45FFA4",
"D. c #4DFFA3",
"F. c #46FFA8",
"G. c #56FFA2",
"H. c #5FFFA0",
"J. c #5DFFB0",
"K. c #62FFA4",
"L. c #6BFEA4",
"P. c #66FFAB",
"I. c #6EFFA8",
"U. c #72FFA0",
"Y. c #7BFEA1",
"T. c #81D281",
"R. c #8FE38E",
"E. c #9BEF9A",
"W. c #95E894",
"Q. c #81F69E",
"!. c #82FD9E",
"~. c #8CFC9E",
"^. c #9EF99E",
"/. c #97F59C",
"(. c #84FFA3",
"). c #8BFDA2",
"_. c #8FFFAC",
"`. c #86FFAE",
"'. c #93FDA6",
"]. c #9BFFA3",
"[. c #96FFA9",
"{. c #99FFAC",
"}. c #94FFB4",
"|. c #A3FDA2",
" X c #A8FCA7",
".X c #A1FFAA",
"XX c #ACFFAB",
"oX c #B0FFAF",
"OX c #B3FFB1",
"+X c None",
"@X c black",
/* pixels */
"+X+X+X+X+X+X+X+X+X+X+X+X+X|.|.|.|.|.|.+X+X+X+X+X+X+X+X+X+X+X+X+X",
"+X+X+X+X+X+X+X+X+X+X+X+X|.|.|.XXXX|.|.|.+X+X+X+X+X+X+X+X+X+X+X+X",
"+X+X+X+X+X+X+X+X+X+X|.|.|.XX XO.O.|.XX|.|.|.+X+X+X+X+X+X+X+X+X+X",
"+X+X+X+X+X+X+X+X|.|.|.|.XXo.q . X w T.XX|.|.|.|.+X+X+X+X+X+X+X+X",
"+X+X+X+X+X+X|.|.|.|.|.|.g X . s p . o d W.XX|.|.|.|.+X+X+X+X+X+X",
"+X+X+X+X+X|.|.|.XXXXoX|.= = ^ XXXX! , . $ R.|.|.|.|.|.+X+X+X+X+X",
"+X+X+X|.|.|.XX X~ s L E. X^.XX|.|.XX XK . U OXE. XXX|.|.|.+X+X+X",
"+X+X|.|.|.XXo.q . X . $ W |.XX|.|.^.XX^ . U ^.+ q T.XX|.|.|.+X+X",
"+X+X].]./.d X . p f.L o   2 O..X]./..X! . I ].w . o d /.].].+X+X",
"+X).~.[.d . < Q [.[.{.f.p X o a n.[.{.Q   P {.'.R , . f [.~.+X+X",
"+X!.!.(., + M._.!.!.Z.).}.T + X O V Q.Q.N d.(.!._.M.+ 2 (.!.!.+X",
"+XZ.Z.Z., # A.Z.Z.Z.Y.Y.Y < X * *   * T `.(.Z.Z.Z.A.+ 1 Y.Z.Z.+X",
"+XB.B.B.; # V.B.B.U.s.0 . o k m.m.M o . 4 s.U.B.C.m.+ 1 C.B.B.+X",
"+XN.N.L.1 $ N.L.L.I.M   0 a.I.N.N.I.a.0   N I.V.N.V.+ 1 N.N.N.+X",
"+Xb.b.b.g.h.b.B y H.B . X.P.c.b.b.c.P.E . B K.b.K...o 5 b.b.b.+X",
"+Xv.v.v.G.H ;   @ x.B . { G.x.v.v.x.G.H . B J.g.i o . S G.x.v.+X",
"+Xz.z.D.C . o i g.D.m . { l.z.z.z.z.D.J . m S O   ; } D.z.z.z.+X",
"+Xk.k.k.> O | S.k.S.c . } F.q.q.q.q.F.G o + . @ C k.3.3.k.q.k.+X",
"+X0.e.e.- # r.0.0.p.c X 8  .p.e.e.p. .6 X O i 3.p.0.@ 6 e.0.0.+X",
"+X7.7.7.- % 4.w.7.i.v o X o j 4.2.j o . 8  .i.w.7.2.+ > w.7.7.+X",
"+X6.6.6.- # 5.6.6.u.v X j -   & &   & A 8.8.6.6.6.5.+ : 6.6.6.+X",
"+X,.,.,.- + @.y.,.8.z . ` 9.z O O b ,.y.,.,.,.,.y.@.+ : ,.,.,.+X",
"+X,.,.1.u . - F 1.t.z . ) 1.1.[ [ t.n r [ 1.1.1.F - . u 1.,.+X+X",
"+X+X>.>.%.u o . 7 <.z . ) <.&.>.>.>.t   O b _ 7 . o u %.>.>.+X+X",
"+X+X-.-.-.:.' 3 # -.l . ( :.$.-.-.-.-.Z # . . . 7 ' :.-.-.-.+X+X",
"+X+X+X-.-.#.;.=.$.;.x . l =.;.-.-.;.#.;.$.l e D =.;.#.-.-.+X+X+X",
"+X+X+X+X+X=.=.=.=.;.] # . : / ;.;.D & : ;.;.;.;.=.=.=.+X+X+X+X+X",
"+X+X+X+X+X+X=.=.=.=.;.+.t X . e e . X h =.#.#.=.=.=.+X+X+X+X+X+X",
"+X+X+X+X+X+X+X+X=.=.=.;.;./ 3 . . 9 _ ;.=.=.=.=.+X+X+X+X+X+X+X+X",
"+X+X+X+X+X+X+X+X+X+X=.=.#.;.=./ / =.;.=.=.=.+X+X+X+X+X+X+X+X+X+X",
"+X+X+X+X+X+X+X+X+X+X+X+X=.*.=.;.;.=.*.=.+X+X+X+X+X+X+X+X+X+X+X+X",
"+X+X+X+X+X+X+X+X+X+X+X+X+X=.=.*.*.=.=.+X+X+X+X+X+X+X+X+X+X+X+X+X"
};
