/* XPM */
static const char *patchcoin32[] = {
/* columns rows colors chars-per-pixel */
"32 32 211 2 ",
"   c #000100",
".  c #000B01",
"X  c #050F09",
"o  c #001300",
"O  c #011C01",
"+  c #06110B",
"@  c #012302",
"#  c #022904",
"$  c #042C0A",
"%  c #0A2D0B",
"&  c #01330D",
"*  c #09360D",
"=  c #002415",
"-  c #012C18",
";  c #1A2A1A",
":  c #172417",
">  c #033C13",
",  c #0C3C12",
"<  c #093710",
"1  c #123913",
"2  c #003E24",
"3  c #283F28",
"4  c #054013",
"5  c #014A18",
"6  c #0A4316",
"7  c #1D4D1D",
"8  c #104818",
"9  c #02531E",
"0  c #204B1F",
"q  c #03472A",
"w  c #0D5420",
"e  c #185723",
"r  c #025431",
"t  c #005D34",
"y  c #225322",
"u  c #2D4D32",
"i  c #375838",
"p  c #2B432A",
"a  c #01662A",
"s  c #0D622C",
"d  c #076A2F",
"f  c #1F622B",
"g  c #186832",
"h  c #097133",
"j  c #027D39",
"k  c #1C7437",
"l  c #0C6C33",
"z  c #2E632E",
"x  c #266933",
"c  c #267F3F",
"v  c #367539",
"b  c #356E34",
"n  c #3D7A43",
"m  c #0B833E",
"M  c #19823E",
"N  c #00834A",
"B  c #088A45",
"V  c #1C8342",
"C  c #009146",
"Z  c #07974B",
"A  c #1C994F",
"S  c #0F8D54",
"D  c #179955",
"F  c #238846",
"G  c #278443",
"H  c #3A9C53",
"J  c #35904C",
"K  c #00A35F",
"L  c #07AC5A",
"P  c #13A354",
"I  c #04B45F",
"U  c #32AA5B",
"Y  c #2AAA5B",
"T  c #00A961",
"R  c #1BAD65",
"E  c #00B662",
"W  c #1BB566",
"Q  c #3FAF6A",
"!  c #2AB468",
"~  c #3AB36C",
"^  c #32B36B",
"/  c #25AF67",
"(  c #4B8C4B",
")  c #46864A",
"_  c #48914E",
"`  c #548353",
"'  c #4C9652",
"]  c #56975C",
"[  c #4C8D5A",
"{  c #4BA15A",
"}  c #55A75D",
"|  c #4AAF6B",
" . c #49B76C",
".. c #54B36F",
"X. c #53AA6A",
"o. c #69AA68",
"O. c #6DB66C",
"+. c #71BB70",
"@. c #03C76D",
"#. c #01C371",
"$. c #01CA75",
"%. c #0BCB74",
"&. c #0BC273",
"*. c #05DF7E",
"=. c #15DC7B",
"-. c #1ADC7D",
";. c #25C36C",
":. c #29D87B",
">. c #38DB7F",
",. c #03E27E",
"<. c #50C16F",
"1. c #45C873",
"2. c #51C371",
"3. c #7EC57E",
"4. c #74CA7A",
"5. c #7BCA7B",
"6. c #02E483",
"7. c #07ED8D",
"8. c #0CEB84",
"9. c #17EA86",
"0. c #03FA8E",
"q. c #07F78D",
"w. c #1AF28B",
"e. c #02F692",
"r. c #02FD94",
"t. c #0BFD94",
"y. c #01FF9B",
"u. c #0EFF9B",
"i. c #15FE96",
"p. c #16FF9B",
"a. c #1DFF9D",
"s. c #1CFD94",
"d. c #29ED89",
"f. c #21EC89",
"g. c #36E989",
"h. c #22F78F",
"j. c #33F38E",
"k. c #23FB93",
"l. c #26FF9B",
"z. c #2FFF9C",
"x. c #2CFA92",
"c. c #3EFB96",
"v. c #3AFF9D",
"b. c #36F793",
"n. c #01FEA2",
"m. c #08FFA3",
"M. c #1EFFA2",
"N. c #27FFA3",
"B. c #21FFAA",
"V. c #30FFA2",
"C. c #3AFFA3",
"Z. c #4EDC82",
"A. c #57DF83",
"S. c #79DE89",
"D. c #4AE58B",
"F. c #55E48A",
"G. c #5BEF91",
"H. c #46FA96",
"J. c #42FE9E",
"K. c #48FF99",
"L. c #5DF394",
"P. c #50FA96",
"I. c #52FE9A",
"U. c #5CFC9A",
"Y. c #57F091",
"T. c #76E28B",
"R. c #69EF92",
"E. c #76ED92",
"W. c #67F99B",
"Q. c #69F897",
"!. c #72FD9C",
"~. c #7BFD9D",
"^. c #7DF499",
"/. c #67EA8F",
"(. c #44FFA3",
"). c #4CFFA1",
"_. c #46FFAB",
"`. c #57FFA2",
"'. c #62FFA5",
"]. c #6DFEA4",
"[. c #6BFFAD",
"{. c #76FFA3",
"}. c #70FFA9",
"|. c #7BFFAA",
" X c #82CA82",
".X c #88D787",
"XX c #8DE18C",
"oX c #94E593",
"OX c #9DEB9C",
"+X c #81F397",
"@X c #8AF89D",
"#X c #9EFB9F",
"$X c #96F59A",
"%X c #A1F39F",
"&X c #81FFA6",
"*X c #86FFAC",
"=X c #89FFAE",
"-X c #8BFEA3",
";X c #96FDA4",
":X c #92FFAB",
">X c #9CFFAB",
",X c #99FFB5",
"<X c #A3FBA3",
"1X c #A8FDA7",
"2X c #ABFFAB",
"3X c #A5F9A5",
"4X c #B0FEAF",
"5X c #B5FFB4",
"6X c #B9FFB8",
"7X c None",
"8X c black",
/* pixels */
"7X7X7X7X7X7X7X7X7X7X7X7X7X7X        7X7X7X7X7X7X7X7X7X7X7X7X7X7X",
"7X7X7X7X7X7X7X7X7X7X7X7X. i o.3.3.o.i . 7X7X7X7X7X7X7X7X7X7X7X7X",
"7X7X7X7X7X7X7X7X7X7X  p .X4X4X5X5X4X2X X3   7X7X7X7X7X7X7X7X7X7X",
"7X7X7X7X7X7X7X7X  : O.2X1X1X<X+.+.3X1X1X2Xo.:   7X7X7X7X7X7X7X7X",
"7X7X7X7X7X7X7X+ ` 3X4X<X1X5.7 . . 7 5.2X1X2X3X` + 7X7X7X7X7X7X7X",
"7X7X7X7X7X  i oX4X3X<X1X)   O ' ( O . b oX3X<X4XoXi   7X7X7X7X7X",
"7X7X7X7X;  X4X1X2X%X$X5X] z XX2X2X.Xz . 0 <X1X1X1X4X3.: 7X7X7X7X",
"7X7X7X; %X2X1X3Xo., # ( 3X6X1X#X%X1X5Xv o oXXXO.3X1X2XOX; 7X7X7X",
"7X7X   X2X<X4.7   1 7   * o.<X1X#X$X2X) o $X)   y 5.<X2X3.  7X7X",
"7X7Xi >X;X_ . O ) @X;X} %   e 4.>X;X>Xn . S.@XJ O o ' ;X>Xu 7X7X",
"7X  ] :X^.# 6 T.:X-X@X:X+X_ @ O v T.,X{ , ^.-X:XS., % +X:X[   7X",
"7X  ..*XE.@ x =X~.~.~.&X~.{ @ O o @ H ^.&X~.~.~.=Xx @ E.*XX.  7X",
"7X  ..|./.@ x {.Q.!.!. .,   6 <.2.6   ,  .{.!.!.{.f # R.|.|   7X",
"7X   .].L.O x ].].].A.O # H W.].].W.H # O F.].Q.].f # G.}.|   7X",
"7X   .'.U.1.F.Y.c 1.F.o G [.U.U.U.U.[.G O Z.U.'.L.8 # Y.'.Q   7X",
"7X  ~ `.P.`.U $   H D.o F `.P.I.I.P.`.G o D.`.U <   k I.`.~   7X",
"7X  ^ ).K.k   , ! ).>.o F ).H.K.K.H.).V O ! e   $ Y ).H.).^   7X",
"7X  ! (.g.@ w c.J.J.>.o V _.c.c.c.c._.V O o o M b.g.;.c.(.!   7X",
"7X  ! C.g.@ l C.j.v.:.@ $ A b.v.v.b.A # o s :.v.C.s @ j.C./   7X",
"7X  / V.d.@ l z.x.z.:.@ @ . 4 ;.;.4   > W z.z.x.z.s # d.V.R   7X",
"7X  W N.f.@ l N.h.l.-.o m P O o o @ P k.l.k.k.k.N.s # f.N.R   7X",
"7X  S M.w.# 4 -.a.a.=.o B B.9.h h 9.w.9.a.s.s.a.=.> $ w.M.S   7X",
"7X7Xr p.i.Z o O m i.=.o B p.i.p.p.i.> # L i.9.m O o Z i.p.q 7X7X",
"7X7X  %.u.t.%.9   B 8.o B p.q.t.t.t.L &   5 &   9 %.t.u.&.  7X7X",
"7X7X7X- 7.y.t.t.I 6.*.o j m.t.0.0.t.m.e.B # > L t.t.y.7.- 7X7X7X",
"7X7X7X7X= $.y.r.y.r.0.5 o d ,.y.y.*.a L n.q.r.y.r.y.#.= 7X7X7X7X",
"7X7X7X7X7X  t 6.y.r.r.6.a . O C C O   C y.0.r.y.6.t   7X7X7X7X7X",
"7X7X7X7X7X7X7XX N e.y.r.y.@.5 . . 5 @.r.0.y.e.N X 7X7X7X7X7X7X7X",
"7X7X7X7X7X7X7X7X  = T y.r.y.e.E E e.y.y.y.T =   7X7X7X7X7X7X7X7X",
"7X7X7X7X7X7X7X7X7X7X  q $.y.y.n.n.y.y.$.2   7X7X7X7X7X7X7X7X7X7X",
"7X7X7X7X7X7X7X7X7X7X7X7X. r K #.#.K r   7X7X7X7X7X7X7X7X7X7X7X7X",
"7X7X7X7X7X7X7X7X7X7X7X7X7X7X        7X7X7X7X7X7X7X7X7X7X7X7X7X7X"
};
