/* XPM */
static const char *patchcoin_testnet16[] = {
/* columns rows colors chars-per-pixel */
"16 16 180 2 ",
"   c #001D00",
".  c #0B2215",
"X  c #102A17",
"o  c #13251D",
"O  c #143116",
"+  c #18301C",
"@  c #1A1F2F",
"#  c #142420",
"$  c #152520",
"%  c #1A2629",
"&  c #1D242D",
"*  c #1D2A28",
"=  c #1C3222",
"-  c #21272D",
";  c #202D29",
":  c #202C2A",
">  c #212E2A",
",  c #222F2C",
"<  c #213528",
"1  c #26332E",
"2  c #27382E",
"3  c #293D2D",
"4  c #242734",
"5  c #232B30",
"6  c #262837",
"7  c #272C35",
"8  c #2C293C",
"9  c #2D2D3E",
"0  c #332F3E",
"q  c #263131",
"w  c #2C3039",
"e  c #35383E",
"r  c #3B463F",
"t  c #281C45",
"y  c #281F45",
"u  c #2A1B4C",
"i  c #2A2540",
"p  c #2A2045",
"a  c #373646",
"s  c #39314B",
"d  c #3C2D54",
"f  c #361665",
"g  c #381767",
"h  c #371668",
"j  c #4A3F5C",
"k  c #411E6A",
"l  c #441E6E",
"z  c #401573",
"x  c #4F1F7E",
"c  c #452168",
"v  c #442268",
"b  c #4B2F68",
"n  c #4D3C64",
"m  c #3D4447",
"M  c #3F4447",
"N  c #434C4B",
"B  c #55446B",
"V  c #595765",
"C  c #5C5569",
"Z  c #5F576D",
"A  c #5E5969",
"S  c #5E596A",
"D  c #635C6E",
"F  c #6B5D7C",
"G  c #5E0CAF",
"H  c #5D11A4",
"J  c #6113A8",
"K  c #670FB4",
"L  c #6C0FBB",
"P  c #711BB4",
"I  c #6821A1",
"U  c #6C5381",
"Y  c #765E8A",
"T  c #77598F",
"R  c #7A459F",
"E  c #720DC6",
"W  c #7C02E7",
"Q  c #7F02E9",
"!  c #9174A3",
"~  c #9377A4",
"^  c #9D7CAF",
"/  c #9F7DB4",
"(  c #9E72B8",
")  c #8219CF",
"_  c #8C18C9",
"`  c #8D2FCB",
"'  c #9A3DC6",
"]  c #9132CF",
"[  c #9D3DCB",
"{  c #9722DE",
"}  c #9432D3",
"|  c #9F3FD6",
" . c #9716EF",
".. c #8200F6",
"X. c #8400F7",
"o. c #8800FD",
"O. c #8A00FC",
"+. c #8B00FD",
"@. c #9000FF",
"#. c #9100FF",
"$. c #9200FF",
"%. c #9500FC",
"&. c #9400FF",
"*. c #9600FE",
"=. c #9700FF",
"-. c #9B07FF",
";. c #9C07FF",
":. c #9509FC",
">. c #9509FD",
",. c #9C16F6",
"<. c #A105FF",
"1. c #A803FF",
"2. c #A314FF",
"3. c #A414FF",
"4. c #9922E0",
"5. c #B035E8",
"6. c #B435EF",
"7. c #A223F4",
"8. c #A323F6",
"9. c #B821FF",
"0. c #BC22FF",
"q. c #A932F2",
"w. c #AB33F5",
"e. c #BF35FF",
"r. c #C122FF",
"t. c #9E4FC2",
"y. c #9F4FC4",
"u. c #A64FD6",
"i. c #A65CD0",
"p. c #B161DE",
"a. c #B16ED8",
"s. c #B37DD0",
"d. c #BC43FF",
"f. c #BE45FF",
"g. c #BF45FF",
"h. c #C077DE",
"j. c #C945FF",
"k. c #C757FF",
"l. c #CC58FF",
"z. c #D25BFF",
"x. c #D55CFF",
"c. c #C466E4",
"v. c #C766EA",
"b. c #C378E2",
"n. c #C167F3",
"m. c #C367F5",
"M. c #D66DFF",
"N. c #DA6EFF",
"B. c #CA79F3",
"V. c #CC7AF6",
"C. c #A682BA",
"Z. c #BE83C6",
"A. c #B589C8",
"S. c #D199EA",
"D. c #D89CED",
"F. c #DB9EF8",
"G. c #E687FF",
"H. c #E787FF",
"J. c #EB89FF",
"K. c #E095FD",
"L. c #E497FF",
"P. c #E598FF",
"I. c #DFA0F9",
"U. c #E3A2FD",
"Y. c #E4A3FF",
"T. c #EAA6FD",
"R. c #ECA7FE",
"E. c #EEA8FD",
"W. c #EDA8FF",
"Q. c #EEA8FF",
"!. c #F1AAFC",
"~. c #F0A9FF",
"^. c #F1AAFF",
"/. c #F3ABFE",
"(. c #F7ADFF",
"). c #F8AEFE",
"_. c #F8AEFF",
"`. c #FFB3FF",
"'. c #FFB4FF",
"]. c None",
/* pixels */
"].].].].].].R.).).T.].].].].].].",
"].].].].I.Y.S.A A D./.F.].].].].",
"].].]./.Q.Q.r V D O / (./.].].].",
"].U.Q.^ 3 N A.`.'.! m C.~ /.U.].",
"].L.C = ( Y 2 F K.Z.m s.+ Z P.].",
"].B.; b.H.J.U   < T a.H.h.; V.].",
"].n.e v.M.j q p.i., B N.c.1 m.].",
"].k.u.a R s y.z.x.t.0 l.n w k.].",
"].f.7 b d.9 ' j.j.[ X ; d | f.].",
"].q.- 5.e.6 * } ] 5 4 ` 6.8 w.].",
"].7.% 4.9.i v & # I 0.r.{ % 7.].",
"].2.k o ) p _ ,. .v x P # l 3.].",
"].>.;.H L y J 1.<.E u @ K -.>.].",
"].].].%.%.G . z g y %.@.%.].].].",
"].].].]...@.Q f h W O.X.].].].].",
"].].].].].].O.@.@.O.].].].].].]."
};
