<?xml version="1.0" encoding="UTF-8"?>
<svg id="Layer_2" xmlns="http://www.w3.org/2000/svg" xmlns:xlink="http://www.w3.org/1999/xlink"
     viewBox="0 0 580.5365 123.3086">
    <defs>
        <linearGradient id="linear-gradient" x1="56.9938" y1="29.2135" x2="56.9938" y2="182.341"
                        gradientUnits="userSpaceOnUse">
            <stop offset="0" stop-color="#a4ffa3"/>
            <stop offset=".0847" stop-color="#7fff9f"/>
            <stop offset=".2246" stop-color="#49ff99"/>
            <stop offset=".3455" stop-color="#21ff95"/>
            <stop offset=".4413" stop-color="#08ff92"/>
            <stop offset=".5" stop-color="#00ff92"/>
            <stop offset=".6793" stop-color="#00f693"/>
            <stop offset=".9708" stop-color="#00dd97"/>
            <stop offset="1" stop-color="#00db98"/>
        </linearGradient>
        <linearGradient id="linear-gradient-2" x1="56.9938" y1="29.2135" x2="56.9938" y2="182.341"
                        xlink:href="#linear-gradient"/>
    </defs>
    <g id="Components">
        <g id="_5de1fb1b-ac3d-438a-a69d-bab8fb8960b7_1">
            <polygon
                    points="107.0546 82.0046 107.0546 32.5225 58.3291 5.436 30.5682 16.4825 6.7286 36.4569 7.4852 64.5276 7.6365 95.0182 33.0585 109.6964 59.9641 118.019 102.6463 95.7748 107.0546 82.0046"
                    style="fill:#002600;"/>
            <path d="M100.5537,20.9929L70.4276,3.5996c-8.3129-4.7995-18.5547-4.7995-26.8676,0L13.4338,20.9929C5.1209,25.7924,0,34.6622,0,44.2609v34.7868c0,9.5987,5.1209,18.4685,13.4338,23.268l30.1261,17.3933c8.3129,4.7995,18.5548,4.7995,26.8676,0l30.1261-17.3933c8.3129-4.7995,13.4338-13.6693,13.4338-23.268v-34.7868c0-9.5987-5.1209-18.4685-13.4338-23.268ZM43.3874,16.8812l9.3548-5.4009c1.3139-.7586,2.7839-1.1394,4.2515-1.1394s2.9379.3809,4.2515,1.1394l12.8088,7.3948c2.6306,1.5192,4.2512,4.3262,4.2512,7.3639v11.0426c-.0005,1.9488-1.5789,3.5275-3.528,3.5278-1.9488-.0003-3.5275-1.579-3.528-3.5278v-11.0426c0-.5171-.2761-.9948-.7233-1.2531l-12.8086-7.3951c-.2264-.1299-.4708-.1933-.723-.1938-.2535.0005-.4979.0639-.724.1938l-9.355,5.4012c-.5528.3193-1.1632.4733-1.7615.4731-1.2168.0013-2.4044-.6342-3.0576-1.7644-.3194-.5527-.4734-1.1633-.4732-1.7615-.0013-1.217.6339-2.4049,1.7644-3.0579ZM19.1207,84.3583l9.6832,5.5908c1.1302.653,1.7657,1.8409,1.7644,3.0576.0003.5983-.1535,1.2086-.4732,1.7615h0c-.6532,1.1303-1.8408,1.7657-3.0576,1.7644-.5983.0003-1.209-.1538-1.7618-.4731l-9.6829-5.5906c-2.6306-1.519-4.2512-4.3257-4.2515-7.3636v-14.7904c.0003-3.0377,1.6209-5.8444,4.2515-7.3636l9.6829-5.5903c.5527-.3196,1.1634-.4736,1.7618-.4731,1.2168-.0016,2.4047.6339,3.0576,1.7642.3194.553.4734,1.1635.4732,1.7618.0013,1.2167-.6341,2.4046-1.7644,3.0576l-9.6832,5.5908c-.4474.258-.7235.7358-.7232,1.2526v14.7904c-.0003.5171.2759.9948.7232,1.2529ZM102.6463,83.1054c-.0003,3.038-1.6206,5.8446-4.2515,7.3636l-12.8086,7.3951c-1.3139.7586-2.7836,1.1392-4.2515,1.1392s-2.9376-.3806-4.2515-1.1392l-9.7414-5.6244c-1.1305-.653-1.7659-1.8409-1.7644-3.0576-.0005-.5983.1535-1.2088.4729-1.7615.6532-1.1305,1.8411-1.766,3.0579-1.7644.5983-.0005,1.2088.1535,1.7615.4731l9.7411,5.6241c.2264.1302.4708.1933.723.1941.2534-.0008.4981-.0639.7243-.1938l12.8085-7.3953c.4474-.258.7235-.736.7235-1.2529v-11.2382c.0005-1.9488,1.5789-3.5275,3.5277-3.5281,1.9491.0005,3.5275,1.5792,3.5283,3.5281v11.2382ZM102.6463,54.9415c-.0003,3.038-1.6206,5.8446-4.2515,7.3636l-21.8478,12.6139-17.7249,10.3482c-.5489.3206-1.1642.4828-1.7785.4825-.6089.0003-1.2186-.1587-1.7641-.4738l-12.5412-7.2408v19.0948c0,.5171.2759.9948.7232,1.2531l12.8086,7.3951c.2264.1302.4708.1933.723.1938.2535-.0005.4979-.0637.7241-.1938l9.2522-5.3417c.5528-.3196,1.1632-.4736,1.7615-.4731,1.2168-.0013,2.4045.6339,3.0576,1.7644.3194.5527.4734,1.1633.4732,1.7618.0013,1.2167-.6339,2.4043-1.7644,3.0576l-9.2523,5.3417c-1.3136.7583-2.7836,1.1392-4.2515,1.1392s-2.9373-.3806-4.2515-1.1392l-12.8085-7.3951c-2.6308-1.519-4.251-4.3259-4.2512-7.3639v-45.74c0-1.2607.6725-2.425,1.7639-3.0555l12.5412-7.2405-16.6111-9.5904c-.2262-.1302-.4706-.1936-.7228-.1941-.2535.0005-.4981.0637-.7243.1938l-12.8086,7.3953c-.4474.258-.7235.736-.7232,1.2529v11.2385c-.0008,1.9488-1.5795,3.5273-3.5283,3.5281-1.9488-.0008-3.5272-1.5792-3.528-3.5281v-11.2385c.0003-3.038,1.6209-5.8446,4.2515-7.3636l12.8085-7.3951c1.3139-.7588,2.7836-1.1392,4.2515-1.1392s2.9376.3803,4.2515,1.1392l21.9032,12.6456,17.7339,10.2387c1.0916.6305,1.7639,1.7948,1.7639,3.0555v14.4239l16.5616-9.5618c.4474-.2583.7235-.736.7235-1.2531v-14.7901c0-.5168-.2761-.9948-.7235-1.2531l-9.6832-5.5903c-1.1305-.6533-1.7656-1.8412-1.7644-3.0579-.0003-.5983.1538-1.2088.4732-1.7615.6532-1.1305,1.8411-1.766,3.0579-1.7644.5981-.0003,1.2085.1535,1.7613.4731l9.6832,5.5906c2.6308,1.519,4.2512,4.3257,4.2515,7.3636v14.7901Z"
                  style="fill:url(#linear-gradient);"/>
            <polygon
                    points="42.7383 53.4267 42.7383 69.8874 57.0336 78.1409 71.2493 69.8416 71.2493 53.3693 57.0436 45.1675 42.7383 53.4267"
                    style="fill:url(#linear-gradient-2);"/>
            <path d="M175.346,37.6214c-3.7294-2.4509-8.1887-3.6763-13.3734-3.6763-4.0493,0-7.6372.8356-10.7626,2.504-3.127,1.6701-5.6478,3.8547-7.5657,6.5533l-.3199-7.7788h-11.7213v70.4694h12.0412v-25.3943c1.5616,2.4156,3.8894,4.5287,6.9795,6.3402,3.0907,1.8116,6.8369,2.7171,11.2425,2.7171,5.1848,0,9.6435-1.2439,13.3729-3.7294,3.73-2.4861,6.6238-5.8425,8.6848-10.0702,2.0599-4.2256,3.0901-8.8974,3.0901-14.0122s-1.0123-9.7671-3.037-13.9596c-2.0247-4.1909-4.9017-7.5125-8.6311-9.9634ZM172.7883,70.2817c-1.3154,2.6292-3.1433,4.7071-5.4879,6.234-2.344,1.5285-5.0449,2.2909-8.0981,2.2909-3.127,0-5.8446-.7624-8.1524-2.2909-2.3093-1.5269-4.1209-3.5863-5.4342-6.1803-1.3154-2.5924-1.9715-5.4879-1.9715-8.6848,0-3.3385.6745-6.3039,2.0247-8.8979,1.3485-2.5924,3.197-4.617,5.541-6.074,2.3446-1.4548,5.0085-2.1841,7.9924-2.1841,2.9117,0,5.541.6924,7.885,2.0778,2.3446,1.3854,4.2093,3.3564,5.5947,5.914,1.3854,2.5577,2.0778,5.5779,2.0778,9.0579,0,3.1964-.6577,6.1103-1.9715,8.7374Z"
                  style="fill:#002600;"/>
            <path d="M239.2271,72.3064v-16.0905c0-4.404-.8708-8.2749-2.6108-11.615-1.7416-3.3385-4.2988-5.9487-7.6719-7.8319-3.3753-1.8815-7.6193-2.8239-12.7342-2.8239-3.9794,0-7.7088.7293-11.1888,2.1846-3.4816,1.4564-6.3402,3.5527-8.578,6.2866-2.2378,2.7361-3.5348,6.0209-3.8894,9.8571h12.1475c.4961-2.9123,1.8116-5.0085,3.9431-6.2871,2.1309-1.2786,4.617-1.9178,7.4588-1.9178,2.2014,0,4.1193.4441,5.7546,1.3317,1.6332.8892,2.9117,2.2378,3.8362,4.0493.9223,1.8116,1.3848,4.1393,1.3848,6.9795h-13.2135c-4.1209,0-7.885.5861-11.2951,1.7584s-6.1109,3.0018-8.0987,5.4879c-1.9894,2.4877-2.9839,5.7194-2.9839,9.6971,0,3.3396.8345,6.2172,2.5045,8.6311,1.6684,2.4162,3.9062,4.2456,6.7133,5.4879,2.8055,1.2422,5.8425,1.8647,9.111,1.8647,4.1903,0,7.9387-.9771,11.2419-2.9302,3.3032-1.9531,5.8072-4.3508,7.5125-7.1932.8524,2.0615,1.971,3.73,3.3564,5.0085,1.3854,1.2786,3.1438,2.2378,5.2748,2.877,2.1315.6393,4.6886.9592,7.6725.9592v-10.2296c-1.9178-.0699-3.3217-.533-4.2093-1.3854-.8887-.8524-1.3686-2.2378-1.4385-4.1562ZM227.0791,64.8476c0,2.7003-.6225,5.1679-1.8647,7.4057-1.2439,2.2378-2.9134,4.0146-5.008,5.3279-2.0962,1.3154-4.5292,1.9715-7.2994,1.9715-2.4877,0-4.6187-.5861-6.3939-1.7584-1.7763-1.1717-2.664-3.037-2.664-5.5941,0-1.9184.4961-3.4269,1.4922-4.5287.9939-1.1007,2.344-1.9,4.0488-2.3977,1.7053-.4961,3.48-.7461,5.3284-.7461h12.3606v.3199Z"
                  style="fill:#002600;"/>
            <path d="M263.7362,22.4364h-12.148v12.7873h-7.5657v10.1233h7.5657v26.2139c0,5.7541,1.4206,9.9466,4.2624,12.5742,2.8407,2.6287,6.9616,3.9425,12.3611,3.9425h8.418v-10.1233h-6.0735c-2.2746,0-3.9794-.4262-5.1153-1.2786-1.137-.8524-1.7048-2.5208-1.7048-5.0085v-26.3201h12.8936v-10.1233h-12.8936v-12.7873Z"
                  style="fill:#002600;"/>
            <path d="M298.1561,46.5724c2.0594-1.5985,4.6886-2.3977,7.885-2.3977s5.8609.7824,7.9924,2.3446c2.1309,1.5632,3.5163,3.5879,4.1556,6.0735h12.7873c-1.4217-5.9672-4.3156-10.5658-8.6848-13.7991-4.3687-3.2322-9.7503-4.8486-16.1437-4.8486-5.3279,0-9.9818,1.1902-13.9596,3.5695-3.9794,2.3809-7.0695,5.6478-9.2704,9.804-2.2031,4.1556-3.3038,8.9342-3.3038,14.3321,0,5.471,1.136,10.2833,3.4101,14.4389,2.273,4.1556,5.3978,7.4057,9.3772,9.7503,3.9778,2.3446,8.5601,3.5163,13.7465,3.5163,4.2624,0,8.0987-.7456,11.5082-2.2378,3.4101-1.4917,6.2692-3.6394,8.5785-6.4465,2.3077-2.806,3.8894-6.1277,4.7418-9.9634h-12.7873c-.7824,2.7003-2.221,4.7781-4.3156,6.2334-2.0962,1.457-4.7071,2.1846-7.8324,2.1846-3.0549,0-5.631-.7808-7.7256-2.3446-2.0962-1.5616-3.6763-3.6578-4.7418-6.2866-1.0655-2.6276-1.5985-5.5762-1.5985-8.8448,0-3.1254.5146-6.0209,1.5453-8.6848,1.0286-2.664,2.5739-4.7949,4.6355-6.3934Z"
                  style="fill:#002600;"/>
            <path d="M366.4601,33.9451c-3.3396,0-6.5897.7109-9.7503,2.1309-3.1617,1.4223-5.631,3.5169-7.4057,6.2871v-24.7476h-12.0412v70.4621h12.0412v-28.6647c0-4.6886,1.207-8.4001,3.6231-11.1357,2.414-2.7339,5.7178-4.1025,9.9102-4.1025,4.0488,0,7.121,1.2786,9.2173,3.8362,2.0946,2.5577,3.1433,6.074,3.1433,10.5495v29.5171h11.9349v-31.0093c0-7.6004-1.9178-13.355-5.7541-17.2623-3.8362-3.9062-8.8095-5.8609-14.9188-5.8609Z"
                  style="fill:#002600;"/>
            <path d="M410.8949,46.5724c2.0594-1.5985,4.6886-2.3977,7.885-2.3977s5.8609.7824,7.9924,2.3446c2.1309,1.5632,3.5163,3.5879,4.1556,6.0735h12.7873c-1.4217-5.9672-4.3156-10.5658-8.6848-13.7991-4.3687-3.2322-9.7503-4.8486-16.1437-4.8486-5.3279,0-9.9818,1.1902-13.9596,3.5695-3.9794,2.3809-7.0695,5.6478-9.2704,9.804-2.2031,4.1556-3.3038,8.9342-3.3038,14.3321,0,5.471,1.136,10.2833,3.4101,14.4389,2.273,4.1556,5.3978,7.4057,9.3772,9.7503,3.9778,2.3446,8.5601,3.5163,13.7465,3.5163,4.2624,0,8.0987-.7456,11.5082-2.2378,3.4101-1.4917,6.2692-3.6394,8.5785-6.4465,2.3077-2.806,3.8894-6.1277,4.7418-9.9634h-12.7873c-.7824,2.7003-2.221,4.7781-4.3156,6.2334-2.0962,1.457-4.7071,2.1846-7.8324,2.1846-3.0549,0-5.631-.7808-7.7256-2.3446-2.0962-1.5616-3.6763-3.6578-4.7418-6.2866-1.0655-2.6276-1.5985-5.5762-1.5985-8.8448,0-3.1254.5146-6.0209,1.5453-8.6848,1.0286-2.664,2.5739-4.7949,4.6355-6.3934Z"
                  style="fill:#002600;"/>
            <path d="M489.8022,37.3014c-4.1562-2.2378-8.828-3.3564-14.0127-3.3564-5.1153,0-9.7687,1.1186-13.9596,3.3564-4.1925,2.2378-7.531,5.4179-10.0165,9.5372-2.4877,4.1209-3.73,9.0579-3.73,14.812,0,5.6126,1.1891,10.4964,3.57,14.652,2.3793,4.1562,5.6294,7.371,9.7503,9.644,4.1193,2.2725,8.7727,3.4095,13.9596,3.4095,5.4694,0,10.318-1.1902,14.5452-3.5695,4.2256-2.3793,7.5293-5.6646,9.9102-9.8571,2.3793-4.1909,3.5695-8.951,3.5695-14.2789,0-5.7541-1.2254-10.691-3.6763-14.812-2.4509-4.1193-5.7541-7.2994-9.9097-9.5372ZM489.003,70.3885c-1.3507,2.6292-3.1801,4.7071-5.4879,6.234-2.3093,1.5285-4.9917,2.2909-8.0455,2.2909-2.7008,0-5.2048-.6745-7.5125-2.0247-2.3093-1.3485-4.1556-3.32-5.541-5.914-1.3854-2.5924-2.0778-5.701-2.0778-9.3241,0-3.3385.6024-6.3039,1.8116-8.8979,1.207-2.5924,2.9649-4.6355,5.2742-6.1271,2.3077-1.4917,5.0253-2.2378,8.1524-2.2378,2.9833,0,5.6294.693,7.9387,2.0778,2.3077,1.3854,4.1372,3.3569,5.4879,5.914,1.3485,2.5577,2.0247,5.5779,2.0247,9.0579,0,3.3401-.6762,6.3234-2.0247,8.951Z"
                  style="fill:#002600;"/>
            <rect x="509.8884" y="35.2236" width="12.148" height="52.8539" style="fill:#002600;"/>
            <path d="M515.9624,13.7019c-2.2031,0-4.0862.764-5.6478,2.2909-1.5632,1.5285-2.3446,3.3932-2.3446,5.5941,0,2.2031.7813,4.0862,2.3446,5.6478,1.5616,1.5632,3.4448,2.3446,5.6478,2.3446,2.2009,0,4.084-.7813,5.6478-2.3446,1.5616-1.5616,2.344-3.4448,2.344-5.6478,0-2.2009-.7824-4.0656-2.344-5.5941-1.5638-1.5269-3.4469-2.2909-5.6478-2.2909Z"
                  style="fill:#002600;"/>
            <path d="M559.7573,33.9451c-3.4101,0-6.6786.7293-9.8034,2.1846-3.127,1.4564-5.5779,3.5695-7.3531,6.3402l-.2131-7.2463h-11.7213v52.8539h12.0412v-28.6647c0-4.6886,1.1886-8.4001,3.57-11.1357,2.3793-2.7339,5.6294-4.1025,9.7503-4.1025,4.1187,0,7.2458,1.2786,9.3772,3.8362,2.1309,2.5577,3.1964,6.074,3.1964,10.5495v29.5171h11.9349v-31.0093c0-7.6004-1.9178-13.355-5.7541-17.2623-3.8362-3.9062-8.8448-5.8609-15.0251-5.8609Z"
                  style="fill:#002600;"/>
        </g>
    </g>
</svg>
