<?xml version="1.0" encoding="UTF-8"?>
<svg id="Layer_2" xmlns="http://www.w3.org/2000/svg" xmlns:xlink="http://www.w3.org/1999/xlink"
     viewBox="0 0 113.9875 123.3086">
    <defs>
        <linearGradient id="linear-gradient" x1="56.9938" y1="29.2135" x2="56.9938" y2="182.341"
                        gradientUnits="userSpaceOnUse">
            <stop offset="0" stop-color="#e4a3ff"/>
            <stop offset=".0847" stop-color="#d47fff"/>
            <stop offset=".2246" stop-color="#bf49ff"/>
            <stop offset=".3455" stop-color="#a821ff"/>
            <stop offset=".4413" stop-color="#9408ff"/>
            <stop offset=".5" stop-color="#8a00ff"/>
            <stop offset=".6793" stop-color="#8300f6"/>
            <stop offset=".9708" stop-color="#7b00dd"/>
            <stop offset="1" stop-color="#7700db"/>
        </linearGradient>
        <linearGradient id="linear-gradient-2" x1="56.9938" y1="29.2135" x2="56.9938" y2="182.341"
                        xlink:href="#linear-gradient"/>
    </defs>
    <g id="Components">
        <g id="de38ba9c-9c68-4400-b828-4be31248e3eb_1">
            <polygon
                    points="107.0546 82.0046 107.0546 32.5225 58.3291 5.436 30.5682 16.4825 6.7286 36.4569 7.4852 64.5276 7.6365 95.0182 33.0585 109.6964 59.9641 118.019 102.6463 95.7748 107.0546 82.0046"
                    style="fill:#002600;"/>
            <path d="M100.5537,20.9929L70.4276,3.5996c-8.3129-4.7995-18.5547-4.7995-26.8676,0L13.4338,20.9929C5.1209,25.7924,0,34.6622,0,44.2609v34.7868c0,9.5987,5.1209,18.4685,13.4338,23.268l30.1261,17.3933c8.3129,4.7995,18.5548,4.7995,26.8676,0l30.1261-17.3933c8.3129-4.7995,13.4338-13.6693,13.4338-23.268v-34.7868c0-9.5987-5.1209-18.4685-13.4338-23.268ZM43.3874,16.8812l9.3548-5.4009c1.3139-.7586,2.7839-1.1394,4.2515-1.1394s2.9379.3809,4.2515,1.1394l12.8088,7.3948c2.6306,1.5192,4.2512,4.3262,4.2512,7.3639v11.0426c-.0005,1.9488-1.5789,3.5275-3.528,3.5278-1.9488-.0003-3.5275-1.579-3.528-3.5278v-11.0426c0-.5171-.2761-.9948-.7233-1.2531l-12.8086-7.3951c-.2264-.1299-.4708-.1933-.723-.1938-.2535.0005-.4979.0639-.724.1938l-9.355,5.4012c-.5528.3193-1.1632.4733-1.7615.4731-1.2168.0013-2.4044-.6342-3.0576-1.7644-.3194-.5527-.4734-1.1633-.4732-1.7615-.0013-1.217.6339-2.4049,1.7644-3.0579ZM19.1207,84.3583l9.6832,5.5908c1.1302.653,1.7657,1.8409,1.7644,3.0576.0003.5983-.1535,1.2086-.4732,1.7615h0c-.6532,1.1303-1.8408,1.7657-3.0576,1.7644-.5983.0003-1.209-.1538-1.7618-.4731l-9.6829-5.5906c-2.6306-1.519-4.2512-4.3257-4.2515-7.3636v-14.7904c.0003-3.0377,1.6209-5.8444,4.2515-7.3636l9.6829-5.5903c.5527-.3196,1.1634-.4736,1.7618-.4731,1.2168-.0016,2.4047.6339,3.0576,1.7642.3194.553.4734,1.1635.4732,1.7618.0013,1.2167-.6341,2.4046-1.7644,3.0576l-9.6832,5.5908c-.4474.258-.7235.7358-.7232,1.2526v14.7904c-.0003.5171.2759.9948.7232,1.2529ZM102.6463,83.1054c-.0003,3.038-1.6206,5.8446-4.2515,7.3636l-12.8086,7.3951c-1.3139.7586-2.7836,1.1392-4.2515,1.1392s-2.9376-.3806-4.2515-1.1392l-9.7414-5.6244c-1.1305-.653-1.7659-1.8409-1.7644-3.0576-.0005-.5983.1535-1.2088.4729-1.7615.6532-1.1305,1.8411-1.766,3.0579-1.7644.5983-.0005,1.2088.1535,1.7615.4731l9.7411,5.6241c.2264.1302.4708.1933.723.1941.2534-.0008.4981-.0639.7243-.1938l12.8085-7.3953c.4474-.258.7235-.736.7235-1.2529v-11.2382c.0005-1.9488,1.5789-3.5275,3.5277-3.5281,1.9491.0005,3.5275,1.5792,3.5283,3.5281v11.2382ZM102.6463,54.9415c-.0003,3.038-1.6206,5.8446-4.2515,7.3636l-21.8478,12.6139-17.7249,10.3482c-.5489.3206-1.1642.4828-1.7785.4825-.6089.0003-1.2186-.1587-1.7641-.4738l-12.5412-7.2408v19.0948c0,.5171.2759.9948.7232,1.2531l12.8086,7.3951c.2264.1302.4708.1933.723.1938.2535-.0005.4979-.0637.7241-.1938l9.2522-5.3417c.5528-.3196,1.1632-.4736,1.7615-.4731,1.2168-.0013,2.4045.6339,3.0576,1.7644.3194.5527.4734,1.1633.4732,1.7618.0013,1.2167-.6339,2.4043-1.7644,3.0576l-9.2523,5.3417c-1.3136.7583-2.7836,1.1392-4.2515,1.1392s-2.9373-.3806-4.2515-1.1392l-12.8085-7.3951c-2.6308-1.519-4.251-4.3259-4.2512-7.3639v-45.74c0-1.2607.6725-2.425,1.7639-3.0555l12.5412-7.2405-16.6111-9.5904c-.2262-.1302-.4706-.1936-.7228-.1941-.2535.0005-.4981.0637-.7243.1938l-12.8086,7.3953c-.4474.258-.7235.736-.7232,1.2529v11.2385c-.0008,1.9488-1.5795,3.5273-3.5283,3.5281-1.9488-.0008-3.5272-1.5792-3.528-3.5281v-11.2385c.0003-3.038,1.6209-5.8446,4.2515-7.3636l12.8085-7.3951c1.3139-.7588,2.7836-1.1392,4.2515-1.1392s2.9376.3803,4.2515,1.1392l21.9032,12.6456,17.7339,10.2387c1.0916.6305,1.7639,1.7948,1.7639,3.0555v14.4239l16.5616-9.5618c.4474-.2583.7235-.736.7235-1.2531v-14.7901c0-.5168-.2761-.9948-.7235-1.2531l-9.6832-5.5903c-1.1305-.6533-1.7656-1.8412-1.7644-3.0579-.0003-.5983.1538-1.2088.4732-1.7615.6532-1.1305,1.8411-1.766,3.0579-1.7644.5981-.0003,1.2085.1535,1.7613.4731l9.6832,5.5906c2.6308,1.519,4.2512,4.3257,4.2515,7.3636v14.7901Z"
                  style="fill:url(#linear-gradient);"/>
            <polygon
                    points="42.7383 53.4267 42.7383 69.8874 57.0336 78.1409 71.2493 69.8416 71.2493 53.3693 57.0436 45.1675 42.7383 53.4267"
                    style="fill:url(#linear-gradient-2);"/>
        </g>
    </g>
</svg>
